<svg xmlns="http://www.w3.org/2000/svg" width="1920" height="1080" viewBox="0 0 1920 1080">
  <defs>
    <radialGradient id="bg_grad" cx="50%" cy="50%" r="75%">
      <stop offset="0%" stop-color="#140f0c"/>
      <stop offset="100%" stop-color="#050302"/>
    </radialGradient>
    <linearGradient id="glow" x1="0%" y1="0%" x2="100%" y2="100%">
      <stop offset="0%" stop-color="#ff7b00"/>
      <stop offset="100%" stop-color="#8a2e00"/>
    </linearGradient>
    <radialGradient id="aura" cx="50%" cy="50%" r="50%">
      <stop offset="0%" stop-color="rgba(255, 123, 0, 0.4)"/>
      <stop offset="100%" stop-color="rgba(255, 123, 0, 0)"/>
    </radialGradient>
  </defs>
  <rect width="1920" height="1080" fill="url(#bg_grad)"/>
  <polygon points="912.0254037844386,-150.0 889.0254037844386,-110.16283142591583 843.0254037844386,-110.16283142591581 820.0254037844386,-150.0 843.0254037844386,-189.83716857408416 889.0254037844386,-189.8371685740842" fill="none" stroke="url(#glow)" stroke-width="2" stroke-opacity="0.08020993537862237"/>
<polygon points="998.6279441628825,-150.0 975.6279441628825,-110.16283142591583 929.6279441628825,-110.16283142591581 906.6279441628825,-150.0 929.6279441628825,-189.83716857408416 975.6279441628825,-189.8371685740842" fill="none" stroke="url(#glow)" stroke-width="2" stroke-opacity="0.08548966575297827"/>
<polygon points="1085.2304845413264,-150.0 1062.2304845413264,-110.16283142591583 1016.2304845413264,-110.16283142591581 993.2304845413264,-150.0 1016.2304845413264,-189.83716857408416 1062.2304845413264,-189.8371685740842" fill="none" stroke="url(#glow)" stroke-width="2" stroke-opacity="0.08498080627104145"/>
<polygon points="695.5190528383289,-75.0 672.5190528383289,-35.162831425915826 626.5190528383289,-35.16283142591582 603.5190528383289,-75.0 626.5190528383289,-114.83716857408416 672.5190528383289,-114.83716857408419" fill="none" stroke="url(#glow)" stroke-width="2" stroke-opacity="0.0886170063356743"/>
<polygon points="868.7241335952167,-75.0 845.7241335952167,-35.162831425915826 799.7241335952167,-35.16283142591582 776.7241335952167,-75.0 799.7241335952167,-114.83716857408416 845.7241335952167,-114.83716857408419" fill="none" stroke="url(#glow)" stroke-width="2" stroke-opacity="0.0883487664905724"/>
<polygon points="955.3266739736605,-75.0 932.3266739736605,-35.162831425915826 886.3266739736605,-35.16283142591582 863.3266739736605,-75.0 886.3266739736605,-114.83716857408416 932.3266739736605,-114.83716857408419" fill="none" stroke="url(#glow)" stroke-width="2" stroke-opacity="0.07711097200703514"/>
<polygon points="1041.9292143521043,-75.0 1018.9292143521044,-35.162831425915826 972.9292143521044,-35.16283142591582 949.9292143521044,-75.0 972.9292143521044,-114.83716857408416 1018.9292143521044,-114.83716857408419" fill="none" stroke="url(#glow)" stroke-width="2" stroke-opacity="0.08995055647587072"/>
<polygon points="1128.5317547305483,-75.0 1105.5317547305483,-35.162831425915826 1059.5317547305483,-35.16283142591582 1036.5317547305483,-75.0 1059.5317547305483,-114.83716857408416 1105.5317547305483,-114.83716857408419" fill="none" stroke="url(#glow)" stroke-width="2" stroke-opacity="0.08618267129735954"/>
<polygon points="1215.134295108992,-75.0 1192.134295108992,-35.162831425915826 1146.134295108992,-35.16283142591582 1123.134295108992,-75.0 1146.134295108992,-114.83716857408416 1192.134295108992,-114.83716857408419" fill="none" stroke="url(#glow)" stroke-width="2" stroke-opacity="0.06806428648124307"/>
<polygon points="1301.7368354874359,-75.0 1278.7368354874359,-35.162831425915826 1232.7368354874359,-35.16283142591582 1209.7368354874359,-75.0 1232.7368354874359,-114.83716857408416 1278.7368354874359,-114.83716857408419" fill="none" stroke="url(#glow)" stroke-width="2" stroke-opacity="0.10966455777445726"/>
<polygon points="1388.33937586588,-75.0 1365.33937586588,-35.162831425915826 1319.33937586588,-35.16283142591582 1296.33937586588,-75.0 1319.33937586588,-114.83716857408416 1365.33937586588,-114.83716857408419" fill="none" stroke="url(#glow)" stroke-width="2" stroke-opacity="0.06467597462132846"/>
<polygon points="565.6152422706632,0.0 542.6152422706632,39.837168574084174 496.6152422706632,39.83716857408418 473.6152422706632,5.633375276077825e-15 496.6152422706632,-39.83716857408417 542.6152422706632,-39.837168574084195" fill="none" stroke="url(#glow)" stroke-width="2" stroke-opacity="0.10089559834899924"/>
<polygon points="652.217782649107,0.0 629.217782649107,39.837168574084174 583.217782649107,39.83716857408418 560.217782649107,5.633375276077825e-15 583.217782649107,-39.83716857408417 629.217782649107,-39.837168574084195" fill="none" stroke="url(#glow)" stroke-width="2" stroke-opacity="0.10221297472763598"/>
<polygon points="825.4228634059948,0.0 802.4228634059948,39.837168574084174 756.4228634059948,39.83716857408418 733.4228634059948,5.633375276077825e-15 756.4228634059948,-39.83716857408417 802.4228634059948,-39.837168574084195" fill="none" stroke="url(#glow)" stroke-width="2" stroke-opacity="0.21629778417290418"/>
<polygon points="912.0254037844386,0.0 889.0254037844386,39.837168574084174 843.0254037844386,39.83716857408418 820.0254037844386,5.633375276077825e-15 843.0254037844386,-39.83716857408417 889.0254037844386,-39.837168574084195" fill="none" stroke="url(#glow)" stroke-width="2" stroke-opacity="0.09043055279882131"/>
<polygon points="998.6279441628825,0.0 975.6279441628825,39.837168574084174 929.6279441628825,39.83716857408418 906.6279441628825,5.633375276077825e-15 929.6279441628825,-39.83716857408417 975.6279441628825,-39.837168574084195" fill="none" stroke="url(#glow)" stroke-width="2" stroke-opacity="0.19232674163346253"/>
<polygon points="1085.2304845413264,0.0 1062.2304845413264,39.837168574084174 1016.2304845413264,39.83716857408418 993.2304845413264,5.633375276077825e-15 1016.2304845413264,-39.83716857408417 1062.2304845413264,-39.837168574084195" fill="none" stroke="url(#glow)" stroke-width="2" stroke-opacity="0.10736830343308794"/>
<polygon points="1171.8330249197702,0.0 1148.8330249197702,39.837168574084174 1102.8330249197702,39.83716857408418 1079.8330249197702,5.633375276077825e-15 1102.8330249197702,-39.83716857408417 1148.8330249197702,-39.837168574084195" fill="none" stroke="url(#glow)" stroke-width="2" stroke-opacity="0.2083380873952929"/>
<polygon points="1258.435565298214,0.0 1235.435565298214,39.837168574084174 1189.435565298214,39.83716857408418 1166.435565298214,5.633375276077825e-15 1189.435565298214,-39.83716857408417 1235.435565298214,-39.837168574084195" fill="none" stroke="url(#glow)" stroke-width="2" stroke-opacity="0.09699702345011181"/>
<polygon points="1345.038105676658,0.0 1322.038105676658,39.837168574084174 1276.038105676658,39.83716857408418 1253.038105676658,5.633375276077825e-15 1276.038105676658,-39.83716857408417 1322.038105676658,-39.837168574084195" fill="none" stroke="url(#glow)" stroke-width="2" stroke-opacity="0.11026677968776379"/>
<polygon points="1431.6406460551018,0.0 1408.6406460551018,39.837168574084174 1362.6406460551018,39.83716857408418 1339.6406460551018,5.633375276077825e-15 1362.6406460551018,-39.83716857408417 1408.6406460551018,-39.837168574084195" fill="none" stroke="url(#glow)" stroke-width="2" stroke-opacity="0.0874435540835762"/>
<polygon points="522.3139720814413,75.0 499.31397208144125,114.83716857408417 453.31397208144125,114.83716857408419 430.31397208144125,75.0 453.31397208144125,35.16283142591583 499.3139720814412,35.162831425915805" fill="none" stroke="url(#glow)" stroke-width="2" stroke-opacity="0.08380469194196555"/>
<polygon points="608.9165124598851,75.0 585.9165124598851,114.83716857408417 539.9165124598851,114.83716857408419 516.9165124598851,75.0 539.9165124598851,35.16283142591583 585.9165124598851,35.162831425915805" fill="none" stroke="url(#glow)" stroke-width="2" stroke-opacity="0.07328801309196784"/>
<polygon points="695.5190528383289,75.0 672.5190528383289,114.83716857408417 626.5190528383289,114.83716857408419 603.5190528383289,75.0 626.5190528383289,35.16283142591583 672.5190528383289,35.162831425915805" fill="none" stroke="url(#glow)" stroke-width="2" stroke-opacity="0.05903317307656388"/>
<polygon points="782.1215932167728,75.0 759.1215932167728,114.83716857408417 713.1215932167728,114.83716857408419 690.1215932167728,75.0 713.1215932167728,35.16283142591583 759.1215932167728,35.162831425915805" fill="none" stroke="url(#glow)" stroke-width="2" stroke-opacity="0.11700225290817405"/>
<polygon points="868.7241335952167,75.0 845.7241335952167,114.83716857408417 799.7241335952167,114.83716857408419 776.7241335952167,75.0 799.7241335952167,35.16283142591583 845.7241335952167,35.162831425915805" fill="none" stroke="url(#glow)" stroke-width="2" stroke-opacity="0.2453954799135721"/>
<polygon points="955.3266739736605,75.0 932.3266739736605,114.83716857408417 886.3266739736605,114.83716857408419 863.3266739736605,75.0 886.3266739736605,35.16283142591583 932.3266739736605,35.162831425915805" fill="none" stroke="url(#glow)" stroke-width="2" stroke-opacity="0.15206335093972298"/>
<polygon points="1041.9292143521043,75.0 1018.9292143521044,114.83716857408417 972.9292143521044,114.83716857408419 949.9292143521044,75.0 972.9292143521044,35.16283142591583 1018.9292143521044,35.162831425915805" fill="none" stroke="url(#glow)" stroke-width="2" stroke-opacity="0.18773445268024422"/>
<polygon points="1128.5317547305483,75.0 1105.5317547305483,114.83716857408417 1059.5317547305483,114.83716857408419 1036.5317547305483,75.0 1059.5317547305483,35.16283142591583 1105.5317547305483,35.162831425915805" fill="none" stroke="url(#glow)" stroke-width="2" stroke-opacity="0.2650109280608198"/>
<polygon points="1215.134295108992,75.0 1192.134295108992,114.83716857408417 1146.134295108992,114.83716857408419 1123.134295108992,75.0 1146.134295108992,35.16283142591583 1192.134295108992,35.162831425915805" fill="none" stroke="url(#glow)" stroke-width="2" stroke-opacity="0.2550415198715639"/>
<polygon points="1388.33937586588,75.0 1365.33937586588,114.83716857408417 1319.33937586588,114.83716857408419 1296.33937586588,75.0 1319.33937586588,35.16283142591583 1365.33937586588,35.162831425915805" fill="none" stroke="url(#glow)" stroke-width="2" stroke-opacity="0.1843379906852322"/>
<polygon points="1474.9419162443237,75.0 1451.9419162443237,114.83716857408417 1405.9419162443237,114.83716857408419 1382.9419162443237,75.0 1405.9419162443237,35.16283142591583 1451.9419162443237,35.162831425915805" fill="none" stroke="url(#glow)" stroke-width="2" stroke-opacity="0.08777738151599546"/>
<polygon points="1561.5444566227675,75.0 1538.5444566227675,114.83716857408417 1492.5444566227675,114.83716857408419 1469.5444566227675,75.0 1492.5444566227675,35.16283142591583 1538.5444566227675,35.162831425915805" fill="none" stroke="url(#glow)" stroke-width="2" stroke-opacity="0.05633224979053543"/>
<polygon points="392.41016151377545,150.0 369.41016151377545,189.83716857408416 323.41016151377545,189.8371685740842 300.41016151377545,150.0 323.41016151377545,110.16283142591584 369.4101615137754,110.16283142591581" fill="none" stroke="url(#glow)" stroke-width="2" stroke-opacity="0.061398594864800336"/>
<polygon points="565.6152422706632,150.0 542.6152422706632,189.83716857408416 496.6152422706632,189.8371685740842 473.6152422706632,150.0 496.6152422706632,110.16283142591584 542.6152422706632,110.16283142591581" fill="none" stroke="url(#glow)" stroke-width="2" stroke-opacity="0.053601973155403236"/>
<polygon points="652.217782649107,150.0 629.217782649107,189.83716857408416 583.217782649107,189.8371685740842 560.217782649107,150.0 583.217782649107,110.16283142591584 629.217782649107,110.16283142591581" fill="none" stroke="url(#glow)" stroke-width="2" stroke-opacity="0.1783121956845445"/>
<polygon points="738.8203230275509,150.0 715.8203230275509,189.83716857408416 669.8203230275509,189.8371685740842 646.8203230275509,150.0 669.8203230275509,110.16283142591584 715.8203230275509,110.16283142591581" fill="none" stroke="url(#glow)" stroke-width="2" stroke-opacity="0.22861276066710073"/>
<polygon points="825.4228634059948,150.0 802.4228634059948,189.83716857408416 756.4228634059948,189.8371685740842 733.4228634059948,150.0 756.4228634059948,110.16283142591584 802.4228634059948,110.16283142591581" fill="none" stroke="url(#glow)" stroke-width="2" stroke-opacity="0.2966384019848369"/>
<polygon points="912.0254037844386,150.0 889.0254037844386,189.83716857408416 843.0254037844386,189.8371685740842 820.0254037844386,150.0 843.0254037844386,110.16283142591584 889.0254037844386,110.16283142591581" fill="none" stroke="url(#glow)" stroke-width="2" stroke-opacity="0.3131434374327929"/>
<polygon points="998.6279441628825,150.0 975.6279441628825,189.83716857408416 929.6279441628825,189.8371685740842 906.6279441628825,150.0 929.6279441628825,110.16283142591584 975.6279441628825,110.16283142591581" fill="none" stroke="url(#glow)" stroke-width="2" stroke-opacity="0.21225868653508234"/>
<polygon points="994.6279441628825,150.0 973.6279441628825,186.37306695894642 931.6279441628825,186.37306695894642 910.6279441628825,150.0 931.6279441628825,113.62693304105359 973.6279441628825,113.62693304105356" fill="#ff9900" fill-opacity="0.16980694922806588"/>
<polygon points="1085.2304845413264,150.0 1062.2304845413264,189.83716857408416 1016.2304845413264,189.8371685740842 993.2304845413264,150.0 1016.2304845413264,110.16283142591584 1062.2304845413264,110.16283142591581" fill="none" stroke="url(#glow)" stroke-width="2" stroke-opacity="0.24883061434257783"/>
<polygon points="1171.8330249197702,150.0 1148.8330249197702,189.83716857408416 1102.8330249197702,189.8371685740842 1079.8330249197702,150.0 1102.8330249197702,110.16283142591584 1148.8330249197702,110.16283142591581" fill="none" stroke="url(#glow)" stroke-width="2" stroke-opacity="0.2526065893651472"/>
<polygon points="1258.435565298214,150.0 1235.435565298214,189.83716857408416 1189.435565298214,189.8371685740842 1166.435565298214,150.0 1189.435565298214,110.16283142591584 1235.435565298214,110.16283142591581" fill="none" stroke="url(#glow)" stroke-width="2" stroke-opacity="0.2260189817154878"/>
<polygon points="1345.038105676658,150.0 1322.038105676658,189.83716857408416 1276.038105676658,189.8371685740842 1253.038105676658,150.0 1276.038105676658,110.16283142591584 1322.038105676658,110.16283142591581" fill="none" stroke="url(#glow)" stroke-width="2" stroke-opacity="0.05232766314399288"/>
<polygon points="1431.6406460551018,150.0 1408.6406460551018,189.83716857408416 1362.6406460551018,189.8371685740842 1339.6406460551018,150.0 1362.6406460551018,110.16283142591584 1408.6406460551018,110.16283142591581" fill="none" stroke="url(#glow)" stroke-width="2" stroke-opacity="0.0868476474087775"/>
<polygon points="349.10889132455355,225.0 326.10889132455355,264.83716857408416 280.10889132455355,264.83716857408416 257.10889132455355,225.0 280.10889132455355,185.16283142591584 326.1088913245535,185.1628314259158" fill="none" stroke="url(#glow)" stroke-width="2" stroke-opacity="0.06517743424896862"/>
<polygon points="435.7114317029974,225.0 412.7114317029974,264.83716857408416 366.7114317029974,264.83716857408416 343.7114317029974,225.0 366.7114317029974,185.16283142591584 412.71143170299734,185.1628314259158" fill="none" stroke="url(#glow)" stroke-width="2" stroke-opacity="0.11137783991379213"/>
<polygon points="522.3139720814413,225.0 499.31397208144125,264.83716857408416 453.31397208144125,264.83716857408416 430.31397208144125,225.0 453.31397208144125,185.16283142591584 499.3139720814412,185.1628314259158" fill="none" stroke="url(#glow)" stroke-width="2" stroke-opacity="0.061486215794105084"/>
<polygon points="608.9165124598851,225.0 585.9165124598851,264.83716857408416 539.9165124598851,264.83716857408416 516.9165124598851,225.0 539.9165124598851,185.16283142591584 585.9165124598851,185.1628314259158" fill="none" stroke="url(#glow)" stroke-width="2" stroke-opacity="0.14892979261129777"/>
<polygon points="695.5190528383289,225.0 672.5190528383289,264.83716857408416 626.5190528383289,264.83716857408416 603.5190528383289,225.0 626.5190528383289,185.16283142591584 672.5190528383289,185.1628314259158" fill="none" stroke="url(#glow)" stroke-width="2" stroke-opacity="0.2083299663721687"/>
<polygon points="782.1215932167728,225.0 759.1215932167728,264.83716857408416 713.1215932167728,264.83716857408416 690.1215932167728,225.0 713.1215932167728,185.16283142591584 759.1215932167728,185.1628314259158" fill="none" stroke="url(#glow)" stroke-width="2" stroke-opacity="0.1866108544458843"/>
<polygon points="868.7241335952167,225.0 845.7241335952167,264.83716857408416 799.7241335952167,264.83716857408416 776.7241335952167,225.0 799.7241335952167,185.16283142591584 845.7241335952167,185.1628314259158" fill="none" stroke="url(#glow)" stroke-width="2" stroke-opacity="0.22028594577032648"/>
<polygon points="955.3266739736605,225.0 932.3266739736605,264.83716857408416 886.3266739736605,264.83716857408416 863.3266739736605,225.0 886.3266739736605,185.16283142591584 932.3266739736605,185.1628314259158" fill="none" stroke="url(#glow)" stroke-width="2" stroke-opacity="0.3117279231887721"/>
<polygon points="1041.9292143521043,225.0 1018.9292143521044,264.83716857408416 972.9292143521044,264.83716857408416 949.9292143521044,225.0 972.9292143521044,185.16283142591584 1018.9292143521044,185.1628314259158" fill="none" stroke="url(#glow)" stroke-width="2" stroke-opacity="0.33391308415058385"/>
<polygon points="1128.5317547305483,225.0 1105.5317547305483,264.83716857408416 1059.5317547305483,264.83716857408416 1036.5317547305483,225.0 1059.5317547305483,185.16283142591584 1105.5317547305483,185.1628314259158" fill="none" stroke="url(#glow)" stroke-width="2" stroke-opacity="0.09595555598924231"/>
<polygon points="1215.134295108992,225.0 1192.134295108992,264.83716857408416 1146.134295108992,264.83716857408416 1123.134295108992,225.0 1146.134295108992,185.16283142591584 1192.134295108992,185.1628314259158" fill="none" stroke="url(#glow)" stroke-width="2" stroke-opacity="0.15763265059352743"/>
<polygon points="1301.7368354874359,225.0 1278.7368354874359,264.83716857408416 1232.7368354874359,264.83716857408416 1209.7368354874359,225.0 1232.7368354874359,185.16283142591584 1278.7368354874359,185.1628314259158" fill="none" stroke="url(#glow)" stroke-width="2" stroke-opacity="0.2573640310145063"/>
<polygon points="1297.7368354874359,225.0 1276.7368354874359,261.3730669589464 1234.7368354874359,261.3730669589464 1213.7368354874359,225.0 1234.7368354874359,188.62693304105358 1276.7368354874359,188.62693304105358" fill="#ff9900" fill-opacity="0.20589122481160504"/>
<polygon points="1388.33937586588,225.0 1365.33937586588,264.83716857408416 1319.33937586588,264.83716857408416 1296.33937586588,225.0 1319.33937586588,185.16283142591584 1365.33937586588,185.1628314259158" fill="none" stroke="url(#glow)" stroke-width="2" stroke-opacity="0.2708373140835782"/>
<polygon points="1474.9419162443237,225.0 1451.9419162443237,264.83716857408416 1405.9419162443237,264.83716857408416 1382.9419162443237,225.0 1405.9419162443237,185.16283142591584 1451.9419162443237,185.1628314259158" fill="none" stroke="url(#glow)" stroke-width="2" stroke-opacity="0.1492533383587442"/>
<polygon points="1561.5444566227675,225.0 1538.5444566227675,264.83716857408416 1492.5444566227675,264.83716857408416 1469.5444566227675,225.0 1492.5444566227675,185.16283142591584 1538.5444566227675,185.1628314259158" fill="none" stroke="url(#glow)" stroke-width="2" stroke-opacity="0.06956335918834974"/>
<polygon points="1557.5444566227675,225.0 1536.5444566227675,261.3730669589464 1494.5444566227675,261.3730669589464 1473.5444566227675,225.0 1494.5444566227675,188.62693304105358 1536.5444566227675,188.62693304105358" fill="#ff9900" fill-opacity="0.055650687350679795"/>
<polygon points="1648.1469970012115,225.0 1625.1469970012115,264.83716857408416 1579.1469970012115,264.83716857408416 1556.1469970012115,225.0 1579.1469970012115,185.16283142591584 1625.1469970012115,185.1628314259158" fill="none" stroke="url(#glow)" stroke-width="2" stroke-opacity="0.06239287326790265"/>
<polygon points="392.41016151377545,300.0 369.41016151377545,339.83716857408416 323.41016151377545,339.83716857408416 300.41016151377545,300.0 323.41016151377545,260.16283142591584 369.4101615137754,260.1628314259158" fill="none" stroke="url(#glow)" stroke-width="2" stroke-opacity="0.12192992363321635"/>
<polygon points="479.0127018922193,300.0 456.0127018922193,339.83716857408416 410.0127018922193,339.83716857408416 387.0127018922193,300.0 410.0127018922193,260.16283142591584 456.01270189221924,260.1628314259158" fill="none" stroke="url(#glow)" stroke-width="2" stroke-opacity="0.17664138746462324"/>
<polygon points="565.6152422706632,300.0 542.6152422706632,339.83716857408416 496.6152422706632,339.83716857408416 473.6152422706632,300.0 496.6152422706632,260.16283142591584 542.6152422706632,260.1628314259158" fill="none" stroke="url(#glow)" stroke-width="2" stroke-opacity="0.26808656332244424"/>
<polygon points="652.217782649107,300.0 629.217782649107,339.83716857408416 583.217782649107,339.83716857408416 560.217782649107,300.0 583.217782649107,260.16283142591584 629.217782649107,260.1628314259158" fill="none" stroke="url(#glow)" stroke-width="2" stroke-opacity="0.15632388521025356"/>
<polygon points="738.8203230275509,300.0 715.8203230275509,339.83716857408416 669.8203230275509,339.83716857408416 646.8203230275509,300.0 669.8203230275509,260.16283142591584 715.8203230275509,260.1628314259158" fill="none" stroke="url(#glow)" stroke-width="2" stroke-opacity="0.10565884747722026"/>
<polygon points="825.4228634059948,300.0 802.4228634059948,339.83716857408416 756.4228634059948,339.83716857408416 733.4228634059948,300.0 756.4228634059948,260.16283142591584 802.4228634059948,260.1628314259158" fill="none" stroke="url(#glow)" stroke-width="2" stroke-opacity="0.13339061493068272"/>
<polygon points="912.0254037844386,300.0 889.0254037844386,339.83716857408416 843.0254037844386,339.83716857408416 820.0254037844386,300.0 843.0254037844386,260.16283142591584 889.0254037844386,260.1628314259158" fill="none" stroke="url(#glow)" stroke-width="2" stroke-opacity="0.43364901953616863"/>
<polygon points="998.6279441628825,300.0 975.6279441628825,339.83716857408416 929.6279441628825,339.83716857408416 906.6279441628825,300.0 929.6279441628825,260.16283142591584 975.6279441628825,260.1628314259158" fill="none" stroke="url(#glow)" stroke-width="2" stroke-opacity="0.15108364546320605"/>
<polygon points="1085.2304845413264,300.0 1062.2304845413264,339.83716857408416 1016.2304845413264,339.83716857408416 993.2304845413264,300.0 1016.2304845413264,260.16283142591584 1062.2304845413264,260.1628314259158" fill="none" stroke="url(#glow)" stroke-width="2" stroke-opacity="0.26514820960724583"/>
<polygon points="1171.8330249197702,300.0 1148.8330249197702,339.83716857408416 1102.8330249197702,339.83716857408416 1079.8330249197702,300.0 1102.8330249197702,260.16283142591584 1148.8330249197702,260.1628314259158" fill="none" stroke="url(#glow)" stroke-width="2" stroke-opacity="0.16917535018662058"/>
<polygon points="1258.435565298214,300.0 1235.435565298214,339.83716857408416 1189.435565298214,339.83716857408416 1166.435565298214,300.0 1189.435565298214,260.16283142591584 1235.435565298214,260.1628314259158" fill="none" stroke="url(#glow)" stroke-width="2" stroke-opacity="0.16907088735701387"/>
<polygon points="1345.038105676658,300.0 1322.038105676658,339.83716857408416 1276.038105676658,339.83716857408416 1253.038105676658,300.0 1276.038105676658,260.16283142591584 1322.038105676658,260.1628314259158" fill="none" stroke="url(#glow)" stroke-width="2" stroke-opacity="0.19915691680009795"/>
<polygon points="1431.6406460551018,300.0 1408.6406460551018,339.83716857408416 1362.6406460551018,339.83716857408416 1339.6406460551018,300.0 1362.6406460551018,260.16283142591584 1408.6406460551018,260.1628314259158" fill="none" stroke="url(#glow)" stroke-width="2" stroke-opacity="0.1232310652133917"/>
<polygon points="1518.2431864335456,300.0 1495.2431864335456,339.83716857408416 1449.2431864335456,339.83716857408416 1426.2431864335456,300.0 1449.2431864335456,260.16283142591584 1495.2431864335456,260.1628314259158" fill="none" stroke="url(#glow)" stroke-width="2" stroke-opacity="0.12545263878282062"/>
<polygon points="1604.8457268119896,300.0 1581.8457268119896,339.83716857408416 1535.8457268119896,339.83716857408416 1512.8457268119896,300.0 1535.8457268119896,260.16283142591584 1581.8457268119896,260.1628314259158" fill="none" stroke="url(#glow)" stroke-width="2" stroke-opacity="0.06919720360455665"/>
<polygon points="1600.8457268119896,300.0 1579.8457268119896,336.3730669589464 1537.8457268119896,336.3730669589464 1516.8457268119896,300.0 1537.8457268119896,263.6269330410536 1579.8457268119896,263.6269330410536" fill="#ff9900" fill-opacity="0.05535776288364533"/>
<polygon points="1691.4482671904334,300.0 1668.4482671904334,339.83716857408416 1622.4482671904334,339.83716857408416 1599.4482671904334,300.0 1622.4482671904334,260.16283142591584 1668.4482671904334,260.1628314259158" fill="none" stroke="url(#glow)" stroke-width="2" stroke-opacity="0.07274570080967604"/>
<polygon points="349.10889132455355,375.0 326.10889132455355,414.83716857408416 280.10889132455355,414.83716857408416 257.10889132455355,375.0 280.10889132455355,335.16283142591584 326.1088913245535,335.1628314259158" fill="none" stroke="url(#glow)" stroke-width="2" stroke-opacity="0.1169498626468693"/>
<polygon points="435.7114317029974,375.0 412.7114317029974,414.83716857408416 366.7114317029974,414.83716857408416 343.7114317029974,375.0 366.7114317029974,335.16283142591584 412.71143170299734,335.1628314259158" fill="none" stroke="url(#glow)" stroke-width="2" stroke-opacity="0.10723296393144653"/>
<polygon points="608.9165124598851,375.0 585.9165124598851,414.83716857408416 539.9165124598851,414.83716857408416 516.9165124598851,375.0 539.9165124598851,335.16283142591584 585.9165124598851,335.1628314259158" fill="none" stroke="url(#glow)" stroke-width="2" stroke-opacity="0.06349185814404217"/>
<polygon points="695.5190528383289,375.0 672.5190528383289,414.83716857408416 626.5190528383289,414.83716857408416 603.5190528383289,375.0 626.5190528383289,335.16283142591584 672.5190528383289,335.1628314259158" fill="none" stroke="url(#glow)" stroke-width="2" stroke-opacity="0.14855712278337724"/>
<polygon points="691.5190528383289,375.0 670.5190528383289,411.3730669589464 628.5190528383289,411.3730669589464 607.5190528383289,375.0 628.5190528383289,338.6269330410536 670.5190528383289,338.6269330410536" fill="#ff9900" fill-opacity="0.1188456982267018"/>
<polygon points="782.1215932167728,375.0 759.1215932167728,414.83716857408416 713.1215932167728,414.83716857408416 690.1215932167728,375.0 713.1215932167728,335.16283142591584 759.1215932167728,335.1628314259158" fill="none" stroke="url(#glow)" stroke-width="2" stroke-opacity="0.23644041323704007"/>
<polygon points="868.7241335952167,375.0 845.7241335952167,414.83716857408416 799.7241335952167,414.83716857408416 776.7241335952167,375.0 799.7241335952167,335.16283142591584 845.7241335952167,335.1628314259158" fill="none" stroke="url(#glow)" stroke-width="2" stroke-opacity="0.5499311779148989"/>
<polygon points="955.3266739736605,375.0 932.3266739736605,414.83716857408416 886.3266739736605,414.83716857408416 863.3266739736605,375.0 886.3266739736605,335.16283142591584 932.3266739736605,335.1628314259158" fill="none" stroke="url(#glow)" stroke-width="2" stroke-opacity="0.43523309532930315"/>
<polygon points="1041.9292143521043,375.0 1018.9292143521044,414.83716857408416 972.9292143521044,414.83716857408416 949.9292143521044,375.0 972.9292143521044,335.16283142591584 1018.9292143521044,335.1628314259158" fill="none" stroke="url(#glow)" stroke-width="2" stroke-opacity="0.1548799233273406"/>
<polygon points="1128.5317547305483,375.0 1105.5317547305483,414.83716857408416 1059.5317547305483,414.83716857408416 1036.5317547305483,375.0 1059.5317547305483,335.16283142591584 1105.5317547305483,335.1628314259158" fill="none" stroke="url(#glow)" stroke-width="2" stroke-opacity="0.5059259221843796"/>
<polygon points="1215.134295108992,375.0 1192.134295108992,414.83716857408416 1146.134295108992,414.83716857408416 1123.134295108992,375.0 1146.134295108992,335.16283142591584 1192.134295108992,335.1628314259158" fill="none" stroke="url(#glow)" stroke-width="2" stroke-opacity="0.1315054562437515"/>
<polygon points="1301.7368354874359,375.0 1278.7368354874359,414.83716857408416 1232.7368354874359,414.83716857408416 1209.7368354874359,375.0 1232.7368354874359,335.16283142591584 1278.7368354874359,335.1628314259158" fill="none" stroke="url(#glow)" stroke-width="2" stroke-opacity="0.2387596432540702"/>
<polygon points="1388.33937586588,375.0 1365.33937586588,414.83716857408416 1319.33937586588,414.83716857408416 1296.33937586588,375.0 1319.33937586588,335.16283142591584 1365.33937586588,335.1628314259158" fill="none" stroke="url(#glow)" stroke-width="2" stroke-opacity="0.07453759458253008"/>
<polygon points="1474.9419162443237,375.0 1451.9419162443237,414.83716857408416 1405.9419162443237,414.83716857408416 1382.9419162443237,375.0 1405.9419162443237,335.16283142591584 1451.9419162443237,335.1628314259158" fill="none" stroke="url(#glow)" stroke-width="2" stroke-opacity="0.25913914409466804"/>
<polygon points="1561.5444566227675,375.0 1538.5444566227675,414.83716857408416 1492.5444566227675,414.83716857408416 1469.5444566227675,375.0 1492.5444566227675,335.16283142591584 1538.5444566227675,335.1628314259158" fill="none" stroke="url(#glow)" stroke-width="2" stroke-opacity="0.16785076951807695"/>
<polygon points="305.8076211353316,450.0 282.8076211353316,489.83716857408416 236.8076211353316,489.83716857408416 213.8076211353316,450.0 236.80762113533157,410.16283142591584 282.80762113533154,410.1628314259158" fill="none" stroke="url(#glow)" stroke-width="2" stroke-opacity="0.05504601082727109"/>
<polygon points="392.41016151377545,450.0 369.41016151377545,489.83716857408416 323.41016151377545,489.83716857408416 300.41016151377545,450.0 323.41016151377545,410.16283142591584 369.4101615137754,410.1628314259158" fill="none" stroke="url(#glow)" stroke-width="2" stroke-opacity="0.178008579355783"/>
<polygon points="479.0127018922193,450.0 456.0127018922193,489.83716857408416 410.0127018922193,489.83716857408416 387.0127018922193,450.0 410.0127018922193,410.16283142591584 456.01270189221924,410.1628314259158" fill="none" stroke="url(#glow)" stroke-width="2" stroke-opacity="0.12384006473008027"/>
<polygon points="565.6152422706632,450.0 542.6152422706632,489.83716857408416 496.6152422706632,489.83716857408416 473.6152422706632,450.0 496.6152422706632,410.16283142591584 542.6152422706632,410.1628314259158" fill="none" stroke="url(#glow)" stroke-width="2" stroke-opacity="0.23877351152711954"/>
<polygon points="561.6152422706632,450.0 540.6152422706632,486.3730669589464 498.6152422706632,486.3730669589464 477.6152422706632,450.0 498.6152422706632,413.6269330410536 540.6152422706632,413.6269330410536" fill="#ff9900" fill-opacity="0.19101880922169565"/>
<polygon points="652.217782649107,450.0 629.217782649107,489.83716857408416 583.217782649107,489.83716857408416 560.217782649107,450.0 583.217782649107,410.16283142591584 629.217782649107,410.1628314259158" fill="none" stroke="url(#glow)" stroke-width="2" stroke-opacity="0.15090311481295965"/>
<polygon points="738.8203230275509,450.0 715.8203230275509,489.83716857408416 669.8203230275509,489.83716857408416 646.8203230275509,450.0 669.8203230275509,410.16283142591584 715.8203230275509,410.1628314259158" fill="none" stroke="url(#glow)" stroke-width="2" stroke-opacity="0.42220308677571927"/>
<polygon points="825.4228634059948,450.0 802.4228634059948,489.83716857408416 756.4228634059948,489.83716857408416 733.4228634059948,450.0 756.4228634059948,410.16283142591584 802.4228634059948,410.1628314259158" fill="none" stroke="url(#glow)" stroke-width="2" stroke-opacity="0.4584433991531692"/>
<polygon points="912.0254037844386,450.0 889.0254037844386,489.83716857408416 843.0254037844386,489.83716857408416 820.0254037844386,450.0 843.0254037844386,410.16283142591584 889.0254037844386,410.1628314259158" fill="none" stroke="url(#glow)" stroke-width="2" stroke-opacity="0.5359466411578752"/>
<polygon points="998.6279441628825,450.0 975.6279441628825,489.83716857408416 929.6279441628825,489.83716857408416 906.6279441628825,450.0 929.6279441628825,410.16283142591584 975.6279441628825,410.1628314259158" fill="none" stroke="url(#glow)" stroke-width="2" stroke-opacity="0.2952018069271881"/>
<polygon points="1085.2304845413264,450.0 1062.2304845413264,489.83716857408416 1016.2304845413264,489.83716857408416 993.2304845413264,450.0 1016.2304845413264,410.16283142591584 1062.2304845413264,410.1628314259158" fill="none" stroke="url(#glow)" stroke-width="2" stroke-opacity="0.409934785636575"/>
<polygon points="1171.8330249197702,450.0 1148.8330249197702,489.83716857408416 1102.8330249197702,489.83716857408416 1079.8330249197702,450.0 1102.8330249197702,410.16283142591584 1148.8330249197702,410.1628314259158" fill="none" stroke="url(#glow)" stroke-width="2" stroke-opacity="0.17007071793223683"/>
<polygon points="1258.435565298214,450.0 1235.435565298214,489.83716857408416 1189.435565298214,489.83716857408416 1166.435565298214,450.0 1189.435565298214,410.16283142591584 1235.435565298214,410.1628314259158" fill="none" stroke="url(#glow)" stroke-width="2" stroke-opacity="0.28278224283322484"/>
<polygon points="1345.038105676658,450.0 1322.038105676658,489.83716857408416 1276.038105676658,489.83716857408416 1253.038105676658,450.0 1276.038105676658,410.16283142591584 1322.038105676658,410.1628314259158" fill="none" stroke="url(#glow)" stroke-width="2" stroke-opacity="0.30446710939368327"/>
<polygon points="1431.6406460551018,450.0 1408.6406460551018,489.83716857408416 1362.6406460551018,489.83716857408416 1339.6406460551018,450.0 1362.6406460551018,410.16283142591584 1408.6406460551018,410.1628314259158" fill="none" stroke="url(#glow)" stroke-width="2" stroke-opacity="0.06576842158113035"/>
<polygon points="1518.2431864335456,450.0 1495.2431864335456,489.83716857408416 1449.2431864335456,489.83716857408416 1426.2431864335456,450.0 1449.2431864335456,410.16283142591584 1495.2431864335456,410.1628314259158" fill="none" stroke="url(#glow)" stroke-width="2" stroke-opacity="0.14708446995486235"/>
<polygon points="349.10889132455355,525.0 326.10889132455355,564.8371685740842 280.10889132455355,564.8371685740842 257.10889132455355,525.0 280.10889132455355,485.16283142591584 326.1088913245535,485.1628314259158" fill="none" stroke="url(#glow)" stroke-width="2" stroke-opacity="0.08009267906007571"/>
<polygon points="345.10889132455355,525.0 324.10889132455355,561.3730669589464 282.10889132455355,561.3730669589464 261.10889132455355,525.0 282.10889132455355,488.6269330410536 324.1088913245535,488.6269330410536" fill="#ff9900" fill-opacity="0.06407414324806057"/>
<polygon points="435.7114317029974,525.0 412.7114317029974,564.8371685740842 366.7114317029974,564.8371685740842 343.7114317029974,525.0 366.7114317029974,485.16283142591584 412.71143170299734,485.1628314259158" fill="none" stroke="url(#glow)" stroke-width="2" stroke-opacity="0.13297280775181225"/>
<polygon points="522.3139720814413,525.0 499.31397208144125,564.8371685740842 453.31397208144125,564.8371685740842 430.31397208144125,525.0 453.31397208144125,485.16283142591584 499.3139720814412,485.1628314259158" fill="none" stroke="url(#glow)" stroke-width="2" stroke-opacity="0.2405999772950219"/>
<polygon points="608.9165124598851,525.0 585.9165124598851,564.8371685740842 539.9165124598851,564.8371685740842 516.9165124598851,525.0 539.9165124598851,485.16283142591584 585.9165124598851,485.1628314259158" fill="none" stroke="url(#glow)" stroke-width="2" stroke-opacity="0.26257595084468743"/>
<polygon points="695.5190528383289,525.0 672.5190528383289,564.8371685740842 626.5190528383289,564.8371685740842 603.5190528383289,525.0 626.5190528383289,485.16283142591584 672.5190528383289,485.1628314259158" fill="none" stroke="url(#glow)" stroke-width="2" stroke-opacity="0.2946143709022391"/>
<polygon points="782.1215932167728,525.0 759.1215932167728,564.8371685740842 713.1215932167728,564.8371685740842 690.1215932167728,525.0 713.1215932167728,485.16283142591584 759.1215932167728,485.1628314259158" fill="none" stroke="url(#glow)" stroke-width="2" stroke-opacity="0.11228054019002469"/>
<polygon points="868.7241335952167,525.0 845.7241335952167,564.8371685740842 799.7241335952167,564.8371685740842 776.7241335952167,525.0 799.7241335952167,485.16283142591584 845.7241335952167,485.1628314259158" fill="none" stroke="url(#glow)" stroke-width="2" stroke-opacity="0.26025117726346875"/>
<polygon points="955.3266739736605,525.0 932.3266739736605,564.8371685740842 886.3266739736605,564.8371685740842 863.3266739736605,525.0 886.3266739736605,485.16283142591584 932.3266739736605,485.1628314259158" fill="none" stroke="url(#glow)" stroke-width="2" stroke-opacity="0.37197138098863114"/>
<polygon points="1041.9292143521043,525.0 1018.9292143521044,564.8371685740842 972.9292143521044,564.8371685740842 949.9292143521044,525.0 972.9292143521044,485.16283142591584 1018.9292143521044,485.1628314259158" fill="none" stroke="url(#glow)" stroke-width="2" stroke-opacity="0.32923961028000603"/>
<polygon points="1128.5317547305483,525.0 1105.5317547305483,564.8371685740842 1059.5317547305483,564.8371685740842 1036.5317547305483,525.0 1059.5317547305483,485.16283142591584 1105.5317547305483,485.1628314259158" fill="none" stroke="url(#glow)" stroke-width="2" stroke-opacity="0.5996175731504946"/>
<polygon points="1215.134295108992,525.0 1192.134295108992,564.8371685740842 1146.134295108992,564.8371685740842 1123.134295108992,525.0 1146.134295108992,485.16283142591584 1192.134295108992,485.1628314259158" fill="none" stroke="url(#glow)" stroke-width="2" stroke-opacity="0.5893731776612426"/>
<polygon points="1301.7368354874359,525.0 1278.7368354874359,564.8371685740842 1232.7368354874359,564.8371685740842 1209.7368354874359,525.0 1232.7368354874359,485.16283142591584 1278.7368354874359,485.1628314259158" fill="none" stroke="url(#glow)" stroke-width="2" stroke-opacity="0.4950770778594647"/>
<polygon points="1297.7368354874359,525.0 1276.7368354874359,561.3730669589464 1234.7368354874359,561.3730669589464 1213.7368354874359,525.0 1234.7368354874359,488.6269330410536 1276.7368354874359,488.6269330410536" fill="#ff9900" fill-opacity="0.3960616622875718"/>
<polygon points="1388.33937586588,525.0 1365.33937586588,564.8371685740842 1319.33937586588,564.8371685740842 1296.33937586588,525.0 1319.33937586588,485.16283142591584 1365.33937586588,485.1628314259158" fill="none" stroke="url(#glow)" stroke-width="2" stroke-opacity="0.07957552158742028"/>
<polygon points="1474.9419162443237,525.0 1451.9419162443237,564.8371685740842 1405.9419162443237,564.8371685740842 1382.9419162443237,525.0 1405.9419162443237,485.16283142591584 1451.9419162443237,485.1628314259158" fill="none" stroke="url(#glow)" stroke-width="2" stroke-opacity="0.14651848667847506"/>
<polygon points="1561.5444566227675,525.0 1538.5444566227675,564.8371685740842 1492.5444566227675,564.8371685740842 1469.5444566227675,525.0 1492.5444566227675,485.16283142591584 1538.5444566227675,485.1628314259158" fill="none" stroke="url(#glow)" stroke-width="2" stroke-opacity="0.17573624913513605"/>
<polygon points="1557.5444566227675,525.0 1536.5444566227675,561.3730669589464 1494.5444566227675,561.3730669589464 1473.5444566227675,525.0 1494.5444566227675,488.6269330410536 1536.5444566227675,488.6269330410536" fill="#ff9900" fill-opacity="0.14058899930810884"/>
<polygon points="392.41016151377545,600.0 369.41016151377545,639.8371685740842 323.41016151377545,639.8371685740842 300.41016151377545,600.0 323.41016151377545,560.1628314259158 369.4101615137754,560.1628314259158" fill="none" stroke="url(#glow)" stroke-width="2" stroke-opacity="0.11311095540643959"/>
<polygon points="479.0127018922193,600.0 456.0127018922193,639.8371685740842 410.0127018922193,639.8371685740842 387.0127018922193,600.0 410.0127018922193,560.1628314259158 456.01270189221924,560.1628314259158" fill="none" stroke="url(#glow)" stroke-width="2" stroke-opacity="0.09510519942405234"/>
<polygon points="565.6152422706632,600.0 542.6152422706632,639.8371685740842 496.6152422706632,639.8371685740842 473.6152422706632,600.0 496.6152422706632,560.1628314259158 542.6152422706632,560.1628314259158" fill="none" stroke="url(#glow)" stroke-width="2" stroke-opacity="0.35441587533592306"/>
<polygon points="652.217782649107,600.0 629.217782649107,639.8371685740842 583.217782649107,639.8371685740842 560.217782649107,600.0 583.217782649107,560.1628314259158 629.217782649107,560.1628314259158" fill="none" stroke="url(#glow)" stroke-width="2" stroke-opacity="0.40892514484573944"/>
<polygon points="738.8203230275509,600.0 715.8203230275509,639.8371685740842 669.8203230275509,639.8371685740842 646.8203230275509,600.0 669.8203230275509,560.1628314259158 715.8203230275509,560.1628314259158" fill="none" stroke="url(#glow)" stroke-width="2" stroke-opacity="0.12223247035291297"/>
<polygon points="825.4228634059948,600.0 802.4228634059948,639.8371685740842 756.4228634059948,639.8371685740842 733.4228634059948,600.0 756.4228634059948,560.1628314259158 802.4228634059948,560.1628314259158" fill="none" stroke="url(#glow)" stroke-width="2" stroke-opacity="0.3173798116688742"/>
<polygon points="912.0254037844386,600.0 889.0254037844386,639.8371685740842 843.0254037844386,639.8371685740842 820.0254037844386,600.0 843.0254037844386,560.1628314259158 889.0254037844386,560.1628314259158" fill="none" stroke="url(#glow)" stroke-width="2" stroke-opacity="0.35421653956741883"/>
<polygon points="998.6279441628825,600.0 975.6279441628825,639.8371685740842 929.6279441628825,639.8371685740842 906.6279441628825,600.0 929.6279441628825,560.1628314259158 975.6279441628825,560.1628314259158" fill="none" stroke="url(#glow)" stroke-width="2" stroke-opacity="0.5337235725738549"/>
<polygon points="1085.2304845413264,600.0 1062.2304845413264,639.8371685740842 1016.2304845413264,639.8371685740842 993.2304845413264,600.0 1016.2304845413264,560.1628314259158 1062.2304845413264,560.1628314259158" fill="none" stroke="url(#glow)" stroke-width="2" stroke-opacity="0.28349617740377275"/>
<polygon points="1171.8330249197702,600.0 1148.8330249197702,639.8371685740842 1102.8330249197702,639.8371685740842 1079.8330249197702,600.0 1102.8330249197702,560.1628314259158 1148.8330249197702,560.1628314259158" fill="none" stroke="url(#glow)" stroke-width="2" stroke-opacity="0.11339244465042682"/>
<polygon points="1258.435565298214,600.0 1235.435565298214,639.8371685740842 1189.435565298214,639.8371685740842 1166.435565298214,600.0 1189.435565298214,560.1628314259158 1235.435565298214,560.1628314259158" fill="none" stroke="url(#glow)" stroke-width="2" stroke-opacity="0.4891355099490639"/>
<polygon points="1345.038105676658,600.0 1322.038105676658,639.8371685740842 1276.038105676658,639.8371685740842 1253.038105676658,600.0 1276.038105676658,560.1628314259158 1322.038105676658,560.1628314259158" fill="none" stroke="url(#glow)" stroke-width="2" stroke-opacity="0.3407827616164908"/>
<polygon points="1341.038105676658,600.0 1320.038105676658,636.3730669589464 1278.038105676658,636.3730669589464 1257.038105676658,600.0 1278.038105676658,563.6269330410536 1320.038105676658,563.6269330410536" fill="#ff9900" fill-opacity="0.27262620929319265"/>
<polygon points="1431.6406460551018,600.0 1408.6406460551018,639.8371685740842 1362.6406460551018,639.8371685740842 1339.6406460551018,600.0 1362.6406460551018,560.1628314259158 1408.6406460551018,560.1628314259158" fill="none" stroke="url(#glow)" stroke-width="2" stroke-opacity="0.25280867487425857"/>
<polygon points="1518.2431864335456,600.0 1495.2431864335456,639.8371685740842 1449.2431864335456,639.8371685740842 1426.2431864335456,600.0 1449.2431864335456,560.1628314259158 1495.2431864335456,560.1628314259158" fill="none" stroke="url(#glow)" stroke-width="2" stroke-opacity="0.16207109595134533"/>
<polygon points="1604.8457268119896,600.0 1581.8457268119896,639.8371685740842 1535.8457268119896,639.8371685740842 1512.8457268119896,600.0 1535.8457268119896,560.1628314259158 1581.8457268119896,560.1628314259158" fill="none" stroke="url(#glow)" stroke-width="2" stroke-opacity="0.05961678208117792"/>
<polygon points="1691.4482671904334,600.0 1668.4482671904334,639.8371685740842 1622.4482671904334,639.8371685740842 1599.4482671904334,600.0 1622.4482671904334,560.1628314259158 1668.4482671904334,560.1628314259158" fill="none" stroke="url(#glow)" stroke-width="2" stroke-opacity="0.09139999174853577"/>
<polygon points="349.10889132455355,675.0 326.10889132455355,714.8371685740842 280.10889132455355,714.8371685740842 257.10889132455355,675.0 280.10889132455355,635.1628314259158 326.1088913245535,635.1628314259158" fill="none" stroke="url(#glow)" stroke-width="2" stroke-opacity="0.08860210183791531"/>
<polygon points="435.7114317029974,675.0 412.7114317029974,714.8371685740842 366.7114317029974,714.8371685740842 343.7114317029974,675.0 366.7114317029974,635.1628314259158 412.71143170299734,635.1628314259158" fill="none" stroke="url(#glow)" stroke-width="2" stroke-opacity="0.20763498140852166"/>
<polygon points="522.3139720814413,675.0 499.31397208144125,714.8371685740842 453.31397208144125,714.8371685740842 430.31397208144125,675.0 453.31397208144125,635.1628314259158 499.3139720814412,635.1628314259158" fill="none" stroke="url(#glow)" stroke-width="2" stroke-opacity="0.27455924387880315"/>
<polygon points="608.9165124598851,675.0 585.9165124598851,714.8371685740842 539.9165124598851,714.8371685740842 516.9165124598851,675.0 539.9165124598851,635.1628314259158 585.9165124598851,635.1628314259158" fill="none" stroke="url(#glow)" stroke-width="2" stroke-opacity="0.08892266084440503"/>
<polygon points="695.5190528383289,675.0 672.5190528383289,714.8371685740842 626.5190528383289,714.8371685740842 603.5190528383289,675.0 626.5190528383289,635.1628314259158 672.5190528383289,635.1628314259158" fill="none" stroke="url(#glow)" stroke-width="2" stroke-opacity="0.12416172602349636"/>
<polygon points="782.1215932167728,675.0 759.1215932167728,714.8371685740842 713.1215932167728,714.8371685740842 690.1215932167728,675.0 713.1215932167728,635.1628314259158 759.1215932167728,635.1628314259158" fill="none" stroke="url(#glow)" stroke-width="2" stroke-opacity="0.40159185280562804"/>
<polygon points="868.7241335952167,675.0 845.7241335952167,714.8371685740842 799.7241335952167,714.8371685740842 776.7241335952167,675.0 799.7241335952167,635.1628314259158 845.7241335952167,635.1628314259158" fill="none" stroke="url(#glow)" stroke-width="2" stroke-opacity="0.5760537759893247"/>
<polygon points="955.3266739736605,675.0 932.3266739736605,714.8371685740842 886.3266739736605,714.8371685740842 863.3266739736605,675.0 886.3266739736605,635.1628314259158 932.3266739736605,635.1628314259158" fill="none" stroke="url(#glow)" stroke-width="2" stroke-opacity="0.5673954710257709"/>
<polygon points="1041.9292143521043,675.0 1018.9292143521044,714.8371685740842 972.9292143521044,714.8371685740842 949.9292143521044,675.0 972.9292143521044,635.1628314259158 1018.9292143521044,635.1628314259158" fill="none" stroke="url(#glow)" stroke-width="2" stroke-opacity="0.44945011507120586"/>
<polygon points="1128.5317547305483,675.0 1105.5317547305483,714.8371685740842 1059.5317547305483,714.8371685740842 1036.5317547305483,675.0 1059.5317547305483,635.1628314259158 1105.5317547305483,635.1628314259158" fill="none" stroke="url(#glow)" stroke-width="2" stroke-opacity="0.14486178727959415"/>
<polygon points="1215.134295108992,675.0 1192.134295108992,714.8371685740842 1146.134295108992,714.8371685740842 1123.134295108992,675.0 1146.134295108992,635.1628314259158 1192.134295108992,635.1628314259158" fill="none" stroke="url(#glow)" stroke-width="2" stroke-opacity="0.3261242653114034"/>
<polygon points="1301.7368354874359,675.0 1278.7368354874359,714.8371685740842 1232.7368354874359,714.8371685740842 1209.7368354874359,675.0 1232.7368354874359,635.1628314259158 1278.7368354874359,635.1628314259158" fill="none" stroke="url(#glow)" stroke-width="2" stroke-opacity="0.12943902554040188"/>
<polygon points="1297.7368354874359,675.0 1276.7368354874359,711.3730669589464 1234.7368354874359,711.3730669589464 1213.7368354874359,675.0 1234.7368354874359,638.6269330410536 1276.7368354874359,638.6269330410536" fill="#ff9900" fill-opacity="0.10355122043232151"/>
<polygon points="1388.33937586588,675.0 1365.33937586588,714.8371685740842 1319.33937586588,714.8371685740842 1296.33937586588,675.0 1319.33937586588,635.1628314259158 1365.33937586588,635.1628314259158" fill="none" stroke="url(#glow)" stroke-width="2" stroke-opacity="0.102545437040369"/>
<polygon points="1474.9419162443237,675.0 1451.9419162443237,714.8371685740842 1405.9419162443237,714.8371685740842 1382.9419162443237,675.0 1405.9419162443237,635.1628314259158 1451.9419162443237,635.1628314259158" fill="none" stroke="url(#glow)" stroke-width="2" stroke-opacity="0.23574240646029943"/>
<polygon points="1561.5444566227675,675.0 1538.5444566227675,714.8371685740842 1492.5444566227675,714.8371685740842 1469.5444566227675,675.0 1492.5444566227675,635.1628314259158 1538.5444566227675,635.1628314259158" fill="none" stroke="url(#glow)" stroke-width="2" stroke-opacity="0.19683302899504465"/>
<polygon points="1648.1469970012115,675.0 1625.1469970012115,714.8371685740842 1579.1469970012115,714.8371685740842 1556.1469970012115,675.0 1579.1469970012115,635.1628314259158 1625.1469970012115,635.1628314259158" fill="none" stroke="url(#glow)" stroke-width="2" stroke-opacity="0.12182369757841191"/>
<polygon points="392.41016151377545,750.0 369.41016151377545,789.8371685740842 323.41016151377545,789.8371685740842 300.41016151377545,750.0 323.41016151377545,710.1628314259158 369.4101615137754,710.1628314259158" fill="none" stroke="url(#glow)" stroke-width="2" stroke-opacity="0.11414210081227473"/>
<polygon points="479.0127018922193,750.0 456.0127018922193,789.8371685740842 410.0127018922193,789.8371685740842 387.0127018922193,750.0 410.0127018922193,710.1628314259158 456.01270189221924,710.1628314259158" fill="none" stroke="url(#glow)" stroke-width="2" stroke-opacity="0.2043631179826539"/>
<polygon points="475.0127018922193,750.0 454.0127018922193,786.3730669589464 412.0127018922193,786.3730669589464 391.0127018922193,750.0 412.0127018922193,713.6269330410536 454.0127018922193,713.6269330410536" fill="#ff9900" fill-opacity="0.16349049438612315"/>
<polygon points="565.6152422706632,750.0 542.6152422706632,789.8371685740842 496.6152422706632,789.8371685740842 473.6152422706632,750.0 496.6152422706632,710.1628314259158 542.6152422706632,710.1628314259158" fill="none" stroke="url(#glow)" stroke-width="2" stroke-opacity="0.07472498458943255"/>
<polygon points="652.217782649107,750.0 629.217782649107,789.8371685740842 583.217782649107,789.8371685740842 560.217782649107,750.0 583.217782649107,710.1628314259158 629.217782649107,710.1628314259158" fill="none" stroke="url(#glow)" stroke-width="2" stroke-opacity="0.23954154127988495"/>
<polygon points="738.8203230275509,750.0 715.8203230275509,789.8371685740842 669.8203230275509,789.8371685740842 646.8203230275509,750.0 669.8203230275509,710.1628314259158 715.8203230275509,710.1628314259158" fill="none" stroke="url(#glow)" stroke-width="2" stroke-opacity="0.24534541388191977"/>
<polygon points="825.4228634059948,750.0 802.4228634059948,789.8371685740842 756.4228634059948,789.8371685740842 733.4228634059948,750.0 756.4228634059948,710.1628314259158 802.4228634059948,710.1628314259158" fill="none" stroke="url(#glow)" stroke-width="2" stroke-opacity="0.17884177758730407"/>
<polygon points="912.0254037844386,750.0 889.0254037844386,789.8371685740842 843.0254037844386,789.8371685740842 820.0254037844386,750.0 843.0254037844386,710.1628314259158 889.0254037844386,710.1628314259158" fill="none" stroke="url(#glow)" stroke-width="2" stroke-opacity="0.21596751918573046"/>
<polygon points="998.6279441628825,750.0 975.6279441628825,789.8371685740842 929.6279441628825,789.8371685740842 906.6279441628825,750.0 929.6279441628825,710.1628314259158 975.6279441628825,710.1628314259158" fill="none" stroke="url(#glow)" stroke-width="2" stroke-opacity="0.39135278212404234"/>
<polygon points="1085.2304845413264,750.0 1062.2304845413264,789.8371685740842 1016.2304845413264,789.8371685740842 993.2304845413264,750.0 1016.2304845413264,710.1628314259158 1062.2304845413264,710.1628314259158" fill="none" stroke="url(#glow)" stroke-width="2" stroke-opacity="0.5077186700707313"/>
<polygon points="1171.8330249197702,750.0 1148.8330249197702,789.8371685740842 1102.8330249197702,789.8371685740842 1079.8330249197702,750.0 1102.8330249197702,710.1628314259158 1148.8330249197702,710.1628314259158" fill="none" stroke="url(#glow)" stroke-width="2" stroke-opacity="0.21909302634953604"/>
<polygon points="1258.435565298214,750.0 1235.435565298214,789.8371685740842 1189.435565298214,789.8371685740842 1166.435565298214,750.0 1189.435565298214,710.1628314259158 1235.435565298214,710.1628314259158" fill="none" stroke="url(#glow)" stroke-width="2" stroke-opacity="0.18800567815907934"/>
<polygon points="1345.038105676658,750.0 1322.038105676658,789.8371685740842 1276.038105676658,789.8371685740842 1253.038105676658,750.0 1276.038105676658,710.1628314259158 1322.038105676658,710.1628314259158" fill="none" stroke="url(#glow)" stroke-width="2" stroke-opacity="0.22506232258650782"/>
<polygon points="1431.6406460551018,750.0 1408.6406460551018,789.8371685740842 1362.6406460551018,789.8371685740842 1339.6406460551018,750.0 1362.6406460551018,710.1628314259158 1408.6406460551018,710.1628314259158" fill="none" stroke="url(#glow)" stroke-width="2" stroke-opacity="0.1826696903972286"/>
<polygon points="1604.8457268119896,750.0 1581.8457268119896,789.8371685740842 1535.8457268119896,789.8371685740842 1512.8457268119896,750.0 1535.8457268119896,710.1628314259158 1581.8457268119896,710.1628314259158" fill="none" stroke="url(#glow)" stroke-width="2" stroke-opacity="0.15747453431314207"/>
<polygon points="1691.4482671904334,750.0 1668.4482671904334,789.8371685740842 1622.4482671904334,789.8371685740842 1599.4482671904334,750.0 1622.4482671904334,710.1628314259158 1668.4482671904334,710.1628314259158" fill="none" stroke="url(#glow)" stroke-width="2" stroke-opacity="0.08068195596893336"/>
<polygon points="435.7114317029974,825.0 412.7114317029974,864.8371685740842 366.7114317029974,864.8371685740842 343.7114317029974,825.0 366.7114317029974,785.1628314259158 412.71143170299734,785.1628314259158" fill="none" stroke="url(#glow)" stroke-width="2" stroke-opacity="0.1609117018800563"/>
<polygon points="522.3139720814413,825.0 499.31397208144125,864.8371685740842 453.31397208144125,864.8371685740842 430.31397208144125,825.0 453.31397208144125,785.1628314259158 499.3139720814412,785.1628314259158" fill="none" stroke="url(#glow)" stroke-width="2" stroke-opacity="0.05462829966429521"/>
<polygon points="518.3139720814413,825.0 497.31397208144125,861.3730669589464 455.31397208144125,861.3730669589464 434.31397208144125,825.0 455.31397208144125,788.6269330410536 497.3139720814412,788.6269330410536" fill="#ff9900" fill-opacity="0.04370263973143617"/>
<polygon points="608.9165124598851,825.0 585.9165124598851,864.8371685740842 539.9165124598851,864.8371685740842 516.9165124598851,825.0 539.9165124598851,785.1628314259158 585.9165124598851,785.1628314259158" fill="none" stroke="url(#glow)" stroke-width="2" stroke-opacity="0.1461720611213761"/>
<polygon points="695.5190528383289,825.0 672.5190528383289,864.8371685740842 626.5190528383289,864.8371685740842 603.5190528383289,825.0 626.5190528383289,785.1628314259158 672.5190528383289,785.1628314259158" fill="none" stroke="url(#glow)" stroke-width="2" stroke-opacity="0.15963273876035405"/>
<polygon points="691.5190528383289,825.0 670.5190528383289,861.3730669589464 628.5190528383289,861.3730669589464 607.5190528383289,825.0 628.5190528383289,788.6269330410536 670.5190528383289,788.6269330410536" fill="#ff9900" fill-opacity="0.12770619100828326"/>
<polygon points="782.1215932167728,825.0 759.1215932167728,864.8371685740842 713.1215932167728,864.8371685740842 690.1215932167728,825.0 713.1215932167728,785.1628314259158 759.1215932167728,785.1628314259158" fill="none" stroke="url(#glow)" stroke-width="2" stroke-opacity="0.34376231174180394"/>
<polygon points="868.7241335952167,825.0 845.7241335952167,864.8371685740842 799.7241335952167,864.8371685740842 776.7241335952167,825.0 799.7241335952167,785.1628314259158 845.7241335952167,785.1628314259158" fill="none" stroke="url(#glow)" stroke-width="2" stroke-opacity="0.2759206228226208"/>
<polygon points="955.3266739736605,825.0 932.3266739736605,864.8371685740842 886.3266739736605,864.8371685740842 863.3266739736605,825.0 886.3266739736605,785.1628314259158 932.3266739736605,785.1628314259158" fill="none" stroke="url(#glow)" stroke-width="2" stroke-opacity="0.08405390746441922"/>
<polygon points="1041.9292143521043,825.0 1018.9292143521044,864.8371685740842 972.9292143521044,864.8371685740842 949.9292143521044,825.0 972.9292143521044,785.1628314259158 1018.9292143521044,785.1628314259158" fill="none" stroke="url(#glow)" stroke-width="2" stroke-opacity="0.21351211876951792"/>
<polygon points="1128.5317547305483,825.0 1105.5317547305483,864.8371685740842 1059.5317547305483,864.8371685740842 1036.5317547305483,825.0 1059.5317547305483,785.1628314259158 1105.5317547305483,785.1628314259158" fill="none" stroke="url(#glow)" stroke-width="2" stroke-opacity="0.2570661898132789"/>
<polygon points="1215.134295108992,825.0 1192.134295108992,864.8371685740842 1146.134295108992,864.8371685740842 1123.134295108992,825.0 1146.134295108992,785.1628314259158 1192.134295108992,785.1628314259158" fill="none" stroke="url(#glow)" stroke-width="2" stroke-opacity="0.2572142244460597"/>
<polygon points="1301.7368354874359,825.0 1278.7368354874359,864.8371685740842 1232.7368354874359,864.8371685740842 1209.7368354874359,825.0 1232.7368354874359,785.1628314259158 1278.7368354874359,785.1628314259158" fill="none" stroke="url(#glow)" stroke-width="2" stroke-opacity="0.25748780688130296"/>
<polygon points="1388.33937586588,825.0 1365.33937586588,864.8371685740842 1319.33937586588,864.8371685740842 1296.33937586588,825.0 1319.33937586588,785.1628314259158 1365.33937586588,785.1628314259158" fill="none" stroke="url(#glow)" stroke-width="2" stroke-opacity="0.3204731682461814"/>
<polygon points="1474.9419162443237,825.0 1451.9419162443237,864.8371685740842 1405.9419162443237,864.8371685740842 1382.9419162443237,825.0 1405.9419162443237,785.1628314259158 1451.9419162443237,785.1628314259158" fill="none" stroke="url(#glow)" stroke-width="2" stroke-opacity="0.09718930236765339"/>
<polygon points="1561.5444566227675,825.0 1538.5444566227675,864.8371685740842 1492.5444566227675,864.8371685740842 1469.5444566227675,825.0 1492.5444566227675,785.1628314259158 1538.5444566227675,785.1628314259158" fill="none" stroke="url(#glow)" stroke-width="2" stroke-opacity="0.14923076114914555"/>
<polygon points="1648.1469970012115,825.0 1625.1469970012115,864.8371685740842 1579.1469970012115,864.8371685740842 1556.1469970012115,825.0 1579.1469970012115,785.1628314259158 1625.1469970012115,785.1628314259158" fill="none" stroke="url(#glow)" stroke-width="2" stroke-opacity="0.07261393744437694"/>
<polygon points="479.0127018922193,900.0 456.0127018922193,939.8371685740842 410.0127018922193,939.8371685740842 387.0127018922193,900.0 410.0127018922193,860.1628314259158 456.01270189221924,860.1628314259158" fill="none" stroke="url(#glow)" stroke-width="2" stroke-opacity="0.1544549015144492"/>
<polygon points="652.217782649107,900.0 629.217782649107,939.8371685740842 583.217782649107,939.8371685740842 560.217782649107,900.0 583.217782649107,860.1628314259158 629.217782649107,860.1628314259158" fill="none" stroke="url(#glow)" stroke-width="2" stroke-opacity="0.11795097883782056"/>
<polygon points="738.8203230275509,900.0 715.8203230275509,939.8371685740842 669.8203230275509,939.8371685740842 646.8203230275509,900.0 669.8203230275509,860.1628314259158 715.8203230275509,860.1628314259158" fill="none" stroke="url(#glow)" stroke-width="2" stroke-opacity="0.2564454917983559"/>
<polygon points="825.4228634059948,900.0 802.4228634059948,939.8371685740842 756.4228634059948,939.8371685740842 733.4228634059948,900.0 756.4228634059948,860.1628314259158 802.4228634059948,860.1628314259158" fill="none" stroke="url(#glow)" stroke-width="2" stroke-opacity="0.3190312403789291"/>
<polygon points="821.4228634059948,900.0 800.4228634059948,936.3730669589464 758.4228634059948,936.3730669589464 737.4228634059948,900.0 758.4228634059948,863.6269330410536 800.4228634059948,863.6269330410536" fill="#ff9900" fill-opacity="0.25522499230314327"/>
<polygon points="912.0254037844386,900.0 889.0254037844386,939.8371685740842 843.0254037844386,939.8371685740842 820.0254037844386,900.0 843.0254037844386,860.1628314259158 889.0254037844386,860.1628314259158" fill="none" stroke="url(#glow)" stroke-width="2" stroke-opacity="0.3803138263791042"/>
<polygon points="998.6279441628825,900.0 975.6279441628825,939.8371685740842 929.6279441628825,939.8371685740842 906.6279441628825,900.0 929.6279441628825,860.1628314259158 975.6279441628825,860.1628314259158" fill="none" stroke="url(#glow)" stroke-width="2" stroke-opacity="0.0789647477674367"/>
<polygon points="1085.2304845413264,900.0 1062.2304845413264,939.8371685740842 1016.2304845413264,939.8371685740842 993.2304845413264,900.0 1016.2304845413264,860.1628314259158 1062.2304845413264,860.1628314259158" fill="none" stroke="url(#glow)" stroke-width="2" stroke-opacity="0.13218652608022094"/>
<polygon points="1171.8330249197702,900.0 1148.8330249197702,939.8371685740842 1102.8330249197702,939.8371685740842 1079.8330249197702,900.0 1102.8330249197702,860.1628314259158 1148.8330249197702,860.1628314259158" fill="none" stroke="url(#glow)" stroke-width="2" stroke-opacity="0.28434415649526845"/>
<polygon points="1258.435565298214,900.0 1235.435565298214,939.8371685740842 1189.435565298214,939.8371685740842 1166.435565298214,900.0 1189.435565298214,860.1628314259158 1235.435565298214,860.1628314259158" fill="none" stroke="url(#glow)" stroke-width="2" stroke-opacity="0.14395755119237316"/>
<polygon points="1345.038105676658,900.0 1322.038105676658,939.8371685740842 1276.038105676658,939.8371685740842 1253.038105676658,900.0 1276.038105676658,860.1628314259158 1322.038105676658,860.1628314259158" fill="none" stroke="url(#glow)" stroke-width="2" stroke-opacity="0.2819942080314677"/>
<polygon points="1431.6406460551018,900.0 1408.6406460551018,939.8371685740842 1362.6406460551018,939.8371685740842 1339.6406460551018,900.0 1362.6406460551018,860.1628314259158 1408.6406460551018,860.1628314259158" fill="none" stroke="url(#glow)" stroke-width="2" stroke-opacity="0.10550192900085341"/>
<polygon points="1518.2431864335456,900.0 1495.2431864335456,939.8371685740842 1449.2431864335456,939.8371685740842 1426.2431864335456,900.0 1449.2431864335456,860.1628314259158 1495.2431864335456,860.1628314259158" fill="none" stroke="url(#glow)" stroke-width="2" stroke-opacity="0.1314400894976023"/>
<polygon points="1604.8457268119896,900.0 1581.8457268119896,939.8371685740842 1535.8457268119896,939.8371685740842 1512.8457268119896,900.0 1535.8457268119896,860.1628314259158 1581.8457268119896,860.1628314259158" fill="none" stroke="url(#glow)" stroke-width="2" stroke-opacity="0.07409798776244719"/>
<polygon points="522.3139720814413,975.0 499.31397208144125,1014.8371685740842 453.31397208144125,1014.8371685740842 430.31397208144125,975.0 453.31397208144125,935.1628314259158 499.3139720814412,935.1628314259158" fill="none" stroke="url(#glow)" stroke-width="2" stroke-opacity="0.11209058912387196"/>
<polygon points="608.9165124598851,975.0 585.9165124598851,1014.8371685740842 539.9165124598851,1014.8371685740842 516.9165124598851,975.0 539.9165124598851,935.1628314259158 585.9165124598851,935.1628314259158" fill="none" stroke="url(#glow)" stroke-width="2" stroke-opacity="0.10805768982654841"/>
<polygon points="695.5190528383289,975.0 672.5190528383289,1014.8371685740842 626.5190528383289,1014.8371685740842 603.5190528383289,975.0 626.5190528383289,935.1628314259158 672.5190528383289,935.1628314259158" fill="none" stroke="url(#glow)" stroke-width="2" stroke-opacity="0.14451762507326565"/>
<polygon points="782.1215932167728,975.0 759.1215932167728,1014.8371685740842 713.1215932167728,1014.8371685740842 690.1215932167728,975.0 713.1215932167728,935.1628314259158 759.1215932167728,935.1628314259158" fill="none" stroke="url(#glow)" stroke-width="2" stroke-opacity="0.18529804466561486"/>
<polygon points="778.1215932167728,975.0 757.1215932167728,1011.3730669589464 715.1215932167728,1011.3730669589464 694.1215932167728,975.0 715.1215932167728,938.6269330410536 757.1215932167728,938.6269330410536" fill="#ff9900" fill-opacity="0.1482384357324919"/>
<polygon points="868.7241335952167,975.0 845.7241335952167,1014.8371685740842 799.7241335952167,1014.8371685740842 776.7241335952167,975.0 799.7241335952167,935.1628314259158 845.7241335952167,935.1628314259158" fill="none" stroke="url(#glow)" stroke-width="2" stroke-opacity="0.25243998114714794"/>
<polygon points="955.3266739736605,975.0 932.3266739736605,1014.8371685740842 886.3266739736605,1014.8371685740842 863.3266739736605,975.0 886.3266739736605,935.1628314259158 932.3266739736605,935.1628314259158" fill="none" stroke="url(#glow)" stroke-width="2" stroke-opacity="0.24030450648594348"/>
<polygon points="1041.9292143521043,975.0 1018.9292143521044,1014.8371685740842 972.9292143521044,1014.8371685740842 949.9292143521044,975.0 972.9292143521044,935.1628314259158 1018.9292143521044,935.1628314259158" fill="none" stroke="url(#glow)" stroke-width="2" stroke-opacity="0.12256062105214172"/>
<polygon points="1128.5317547305483,975.0 1105.5317547305483,1014.8371685740842 1059.5317547305483,1014.8371685740842 1036.5317547305483,975.0 1059.5317547305483,935.1628314259158 1105.5317547305483,935.1628314259158" fill="none" stroke="url(#glow)" stroke-width="2" stroke-opacity="0.20524451503967092"/>
<polygon points="1215.134295108992,975.0 1192.134295108992,1014.8371685740842 1146.134295108992,1014.8371685740842 1123.134295108992,975.0 1146.134295108992,935.1628314259158 1192.134295108992,935.1628314259158" fill="none" stroke="url(#glow)" stroke-width="2" stroke-opacity="0.05424257519111551"/>
<polygon points="1301.7368354874359,975.0 1278.7368354874359,1014.8371685740842 1232.7368354874359,1014.8371685740842 1209.7368354874359,975.0 1232.7368354874359,935.1628314259158 1278.7368354874359,935.1628314259158" fill="none" stroke="url(#glow)" stroke-width="2" stroke-opacity="0.2062299573169152"/>
<polygon points="1388.33937586588,975.0 1365.33937586588,1014.8371685740842 1319.33937586588,1014.8371685740842 1296.33937586588,975.0 1319.33937586588,935.1628314259158 1365.33937586588,935.1628314259158" fill="none" stroke="url(#glow)" stroke-width="2" stroke-opacity="0.17655633818771782"/>
<polygon points="1474.9419162443237,975.0 1451.9419162443237,1014.8371685740842 1405.9419162443237,1014.8371685740842 1382.9419162443237,975.0 1405.9419162443237,935.1628314259158 1451.9419162443237,935.1628314259158" fill="none" stroke="url(#glow)" stroke-width="2" stroke-opacity="0.09727142274842343"/>
<polygon points="1470.9419162443237,975.0 1449.9419162443237,1011.3730669589464 1407.9419162443237,1011.3730669589464 1386.9419162443237,975.0 1407.9419162443237,938.6269330410536 1449.9419162443237,938.6269330410536" fill="#ff9900" fill-opacity="0.07781713819873876"/>
<polygon points="479.0127018922193,1050.0 456.0127018922193,1089.8371685740842 410.0127018922193,1089.8371685740842 387.0127018922193,1050.0 410.0127018922193,1010.1628314259158 456.01270189221924,1010.1628314259158" fill="none" stroke="url(#glow)" stroke-width="2" stroke-opacity="0.05945367101429299"/>
<polygon points="565.6152422706632,1050.0 542.6152422706632,1089.8371685740842 496.6152422706632,1089.8371685740842 473.6152422706632,1050.0 496.6152422706632,1010.1628314259158 542.6152422706632,1010.1628314259158" fill="none" stroke="url(#glow)" stroke-width="2" stroke-opacity="0.0784772843636161"/>
<polygon points="652.217782649107,1050.0 629.217782649107,1089.8371685740842 583.217782649107,1089.8371685740842 560.217782649107,1050.0 583.217782649107,1010.1628314259158 629.217782649107,1010.1628314259158" fill="none" stroke="url(#glow)" stroke-width="2" stroke-opacity="0.1766372170883647"/>
<polygon points="738.8203230275509,1050.0 715.8203230275509,1089.8371685740842 669.8203230275509,1089.8371685740842 646.8203230275509,1050.0 669.8203230275509,1010.1628314259158 715.8203230275509,1010.1628314259158" fill="none" stroke="url(#glow)" stroke-width="2" stroke-opacity="0.22211376324629178"/>
<polygon points="825.4228634059948,1050.0 802.4228634059948,1089.8371685740842 756.4228634059948,1089.8371685740842 733.4228634059948,1050.0 756.4228634059948,1010.1628314259158 802.4228634059948,1010.1628314259158" fill="none" stroke="url(#glow)" stroke-width="2" stroke-opacity="0.14429394633742493"/>
<polygon points="821.4228634059948,1050.0 800.4228634059948,1086.3730669589463 758.4228634059948,1086.3730669589463 737.4228634059948,1050.0 758.4228634059948,1013.6269330410536 800.4228634059948,1013.6269330410536" fill="#ff9900" fill-opacity="0.11543515706993995"/>
<polygon points="912.0254037844386,1050.0 889.0254037844386,1089.8371685740842 843.0254037844386,1089.8371685740842 820.0254037844386,1050.0 843.0254037844386,1010.1628314259158 889.0254037844386,1010.1628314259158" fill="none" stroke="url(#glow)" stroke-width="2" stroke-opacity="0.24473953960915967"/>
<polygon points="998.6279441628825,1050.0 975.6279441628825,1089.8371685740842 929.6279441628825,1089.8371685740842 906.6279441628825,1050.0 929.6279441628825,1010.1628314259158 975.6279441628825,1010.1628314259158" fill="none" stroke="url(#glow)" stroke-width="2" stroke-opacity="0.08516024379916422"/>
<polygon points="1085.2304845413264,1050.0 1062.2304845413264,1089.8371685740842 1016.2304845413264,1089.8371685740842 993.2304845413264,1050.0 1016.2304845413264,1010.1628314259158 1062.2304845413264,1010.1628314259158" fill="none" stroke="url(#glow)" stroke-width="2" stroke-opacity="0.07584837959986938"/>
<polygon points="1171.8330249197702,1050.0 1148.8330249197702,1089.8371685740842 1102.8330249197702,1089.8371685740842 1079.8330249197702,1050.0 1102.8330249197702,1010.1628314259158 1148.8330249197702,1010.1628314259158" fill="none" stroke="url(#glow)" stroke-width="2" stroke-opacity="0.09232873628330433"/>
<polygon points="1258.435565298214,1050.0 1235.435565298214,1089.8371685740842 1189.435565298214,1089.8371685740842 1166.435565298214,1050.0 1189.435565298214,1010.1628314259158 1235.435565298214,1010.1628314259158" fill="none" stroke="url(#glow)" stroke-width="2" stroke-opacity="0.17772148516786723"/>
<polygon points="1345.038105676658,1050.0 1322.038105676658,1089.8371685740842 1276.038105676658,1089.8371685740842 1253.038105676658,1050.0 1276.038105676658,1010.1628314259158 1322.038105676658,1010.1628314259158" fill="none" stroke="url(#glow)" stroke-width="2" stroke-opacity="0.11664464871324606"/>
<polygon points="1518.2431864335456,1050.0 1495.2431864335456,1089.8371685740842 1449.2431864335456,1089.8371685740842 1426.2431864335456,1050.0 1449.2431864335456,1010.1628314259158 1495.2431864335456,1010.1628314259158" fill="none" stroke="url(#glow)" stroke-width="2" stroke-opacity="0.06745050268002305"/>
<polygon points="695.5190528383289,1125.0 672.5190528383289,1164.8371685740842 626.5190528383289,1164.8371685740842 603.5190528383289,1125.0 626.5190528383289,1085.1628314259158 672.5190528383289,1085.1628314259158" fill="none" stroke="url(#glow)" stroke-width="2" stroke-opacity="0.12760726183228974"/>
<polygon points="782.1215932167728,1125.0 759.1215932167728,1164.8371685740842 713.1215932167728,1164.8371685740842 690.1215932167728,1125.0 713.1215932167728,1085.1628314259158 759.1215932167728,1085.1628314259158" fill="none" stroke="url(#glow)" stroke-width="2" stroke-opacity="0.11507769912754338"/>
<polygon points="955.3266739736605,1125.0 932.3266739736605,1164.8371685740842 886.3266739736605,1164.8371685740842 863.3266739736605,1125.0 886.3266739736605,1085.1628314259158 932.3266739736605,1085.1628314259158" fill="none" stroke="url(#glow)" stroke-width="2" stroke-opacity="0.05512559035157176"/>
<polygon points="1041.9292143521043,1125.0 1018.9292143521044,1164.8371685740842 972.9292143521044,1164.8371685740842 949.9292143521044,1125.0 972.9292143521044,1085.1628314259158 1018.9292143521044,1085.1628314259158" fill="none" stroke="url(#glow)" stroke-width="2" stroke-opacity="0.1401076079928998"/>
<polygon points="1128.5317547305483,1125.0 1105.5317547305483,1164.8371685740842 1059.5317547305483,1164.8371685740842 1036.5317547305483,1125.0 1059.5317547305483,1085.1628314259158 1105.5317547305483,1085.1628314259158" fill="none" stroke="url(#glow)" stroke-width="2" stroke-opacity="0.12251204430791866"/>
<polygon points="1215.134295108992,1125.0 1192.134295108992,1164.8371685740842 1146.134295108992,1164.8371685740842 1123.134295108992,1125.0 1146.134295108992,1085.1628314259158 1192.134295108992,1085.1628314259158" fill="none" stroke="url(#glow)" stroke-width="2" stroke-opacity="0.10640980138579538"/>
<polygon points="738.8203230275509,1200.0 715.8203230275509,1239.8371685740842 669.8203230275509,1239.8371685740842 646.8203230275509,1200.0 669.8203230275509,1160.1628314259158 715.8203230275509,1160.1628314259158" fill="none" stroke="url(#glow)" stroke-width="2" stroke-opacity="0.06840456851038348"/>
<polygon points="912.0254037844386,1200.0 889.0254037844386,1239.8371685740842 843.0254037844386,1239.8371685740842 820.0254037844386,1200.0 843.0254037844386,1160.1628314259158 889.0254037844386,1160.1628314259158" fill="none" stroke="url(#glow)" stroke-width="2" stroke-opacity="0.05686592941603162"/>
<polygon points="998.6279441628825,1200.0 975.6279441628825,1239.8371685740842 929.6279441628825,1239.8371685740842 906.6279441628825,1200.0 929.6279441628825,1160.1628314259158 975.6279441628825,1160.1628314259158" fill="none" stroke="url(#glow)" stroke-width="2" stroke-opacity="0.13923918925794465"/>
<polygon points="994.6279441628825,1200.0 973.6279441628825,1236.3730669589463 931.6279441628825,1236.3730669589463 910.6279441628825,1200.0 931.6279441628825,1163.6269330410537 973.6279441628825,1163.6269330410535" fill="#ff9900" fill-opacity="0.11139135140635573"/>
<polygon points="1171.8330249197702,1200.0 1148.8330249197702,1239.8371685740842 1102.8330249197702,1239.8371685740842 1079.8330249197702,1200.0 1102.8330249197702,1160.1628314259158 1148.8330249197702,1160.1628314259158" fill="none" stroke="url(#glow)" stroke-width="2" stroke-opacity="0.11256132703549084"/>
<polygon points="1041.9292143521043,1275.0 1018.9292143521044,1314.8371685740842 972.9292143521044,1314.8371685740842 949.9292143521044,1275.0 972.9292143521044,1235.1628314259158 1018.9292143521044,1235.1628314259158" fill="none" stroke="url(#glow)" stroke-width="2" stroke-opacity="0.05343273587464332"/>

</svg>