<svg xmlns="http://www.w3.org/2000/svg" width="1920" height="1080" viewBox="0 0 1920 1080">
  <defs>
    <radialGradient id="bg_grad" cx="50%" cy="50%" r="75%">
      <stop offset="0%" stop-color="#140f0c"/>
      <stop offset="100%" stop-color="#050302"/>
    </radialGradient>
    <linearGradient id="glow" x1="0%" y1="0%" x2="100%" y2="100%">
      <stop offset="0%" stop-color="#ff7b00"/>
      <stop offset="100%" stop-color="#8a2e00"/>
    </linearGradient>
    <radialGradient id="aura" cx="50%" cy="50%" r="50%">
      <stop offset="0%" stop-color="rgba(255, 123, 0, 0.4)"/>
      <stop offset="100%" stop-color="rgba(255, 123, 0, 0)"/>
    </radialGradient>
  </defs>
  <rect width="1920" height="1080" fill="url(#bg_grad)"/>
  <line x1="0" y1="0" x2="0" y2="1080" stroke="rgba(255, 120, 0, 0.05)" stroke-width="1"/>
<line x1="60" y1="0" x2="60" y2="1080" stroke="rgba(255, 120, 0, 0.05)" stroke-width="1"/>
<line x1="120" y1="0" x2="120" y2="1080" stroke="rgba(255, 120, 0, 0.05)" stroke-width="1"/>
<line x1="180" y1="0" x2="180" y2="1080" stroke="rgba(255, 120, 0, 0.05)" stroke-width="1"/>
<line x1="240" y1="0" x2="240" y2="1080" stroke="rgba(255, 120, 0, 0.05)" stroke-width="1"/>
<line x1="300" y1="0" x2="300" y2="1080" stroke="rgba(255, 120, 0, 0.05)" stroke-width="1"/>
<line x1="360" y1="0" x2="360" y2="1080" stroke="rgba(255, 120, 0, 0.05)" stroke-width="1"/>
<line x1="420" y1="0" x2="420" y2="1080" stroke="rgba(255, 120, 0, 0.05)" stroke-width="1"/>
<line x1="480" y1="0" x2="480" y2="1080" stroke="rgba(255, 120, 0, 0.05)" stroke-width="1"/>
<line x1="540" y1="0" x2="540" y2="1080" stroke="rgba(255, 120, 0, 0.05)" stroke-width="1"/>
<line x1="600" y1="0" x2="600" y2="1080" stroke="rgba(255, 120, 0, 0.05)" stroke-width="1"/>
<line x1="660" y1="0" x2="660" y2="1080" stroke="rgba(255, 120, 0, 0.05)" stroke-width="1"/>
<line x1="720" y1="0" x2="720" y2="1080" stroke="rgba(255, 120, 0, 0.05)" stroke-width="1"/>
<line x1="780" y1="0" x2="780" y2="1080" stroke="rgba(255, 120, 0, 0.05)" stroke-width="1"/>
<line x1="840" y1="0" x2="840" y2="1080" stroke="rgba(255, 120, 0, 0.05)" stroke-width="1"/>
<line x1="900" y1="0" x2="900" y2="1080" stroke="rgba(255, 120, 0, 0.05)" stroke-width="1"/>
<line x1="960" y1="0" x2="960" y2="1080" stroke="rgba(255, 120, 0, 0.05)" stroke-width="1"/>
<line x1="1020" y1="0" x2="1020" y2="1080" stroke="rgba(255, 120, 0, 0.05)" stroke-width="1"/>
<line x1="1080" y1="0" x2="1080" y2="1080" stroke="rgba(255, 120, 0, 0.05)" stroke-width="1"/>
<line x1="1140" y1="0" x2="1140" y2="1080" stroke="rgba(255, 120, 0, 0.05)" stroke-width="1"/>
<line x1="1200" y1="0" x2="1200" y2="1080" stroke="rgba(255, 120, 0, 0.05)" stroke-width="1"/>
<line x1="1260" y1="0" x2="1260" y2="1080" stroke="rgba(255, 120, 0, 0.05)" stroke-width="1"/>
<line x1="1320" y1="0" x2="1320" y2="1080" stroke="rgba(255, 120, 0, 0.05)" stroke-width="1"/>
<line x1="1380" y1="0" x2="1380" y2="1080" stroke="rgba(255, 120, 0, 0.05)" stroke-width="1"/>
<line x1="1440" y1="0" x2="1440" y2="1080" stroke="rgba(255, 120, 0, 0.05)" stroke-width="1"/>
<line x1="1500" y1="0" x2="1500" y2="1080" stroke="rgba(255, 120, 0, 0.05)" stroke-width="1"/>
<line x1="1560" y1="0" x2="1560" y2="1080" stroke="rgba(255, 120, 0, 0.05)" stroke-width="1"/>
<line x1="1620" y1="0" x2="1620" y2="1080" stroke="rgba(255, 120, 0, 0.05)" stroke-width="1"/>
<line x1="1680" y1="0" x2="1680" y2="1080" stroke="rgba(255, 120, 0, 0.05)" stroke-width="1"/>
<line x1="1740" y1="0" x2="1740" y2="1080" stroke="rgba(255, 120, 0, 0.05)" stroke-width="1"/>
<line x1="1800" y1="0" x2="1800" y2="1080" stroke="rgba(255, 120, 0, 0.05)" stroke-width="1"/>
<line x1="1860" y1="0" x2="1860" y2="1080" stroke="rgba(255, 120, 0, 0.05)" stroke-width="1"/>
<line x1="0" y1="0" x2="1920" y2="0" stroke="rgba(255, 120, 0, 0.05)" stroke-width="1"/>
<line x1="0" y1="60" x2="1920" y2="60" stroke="rgba(255, 120, 0, 0.05)" stroke-width="1"/>
<line x1="0" y1="120" x2="1920" y2="120" stroke="rgba(255, 120, 0, 0.05)" stroke-width="1"/>
<line x1="0" y1="180" x2="1920" y2="180" stroke="rgba(255, 120, 0, 0.05)" stroke-width="1"/>
<line x1="0" y1="240" x2="1920" y2="240" stroke="rgba(255, 120, 0, 0.05)" stroke-width="1"/>
<line x1="0" y1="300" x2="1920" y2="300" stroke="rgba(255, 120, 0, 0.05)" stroke-width="1"/>
<line x1="0" y1="360" x2="1920" y2="360" stroke="rgba(255, 120, 0, 0.05)" stroke-width="1"/>
<line x1="0" y1="420" x2="1920" y2="420" stroke="rgba(255, 120, 0, 0.05)" stroke-width="1"/>
<line x1="0" y1="480" x2="1920" y2="480" stroke="rgba(255, 120, 0, 0.05)" stroke-width="1"/>
<line x1="0" y1="540" x2="1920" y2="540" stroke="rgba(255, 120, 0, 0.05)" stroke-width="1"/>
<line x1="0" y1="600" x2="1920" y2="600" stroke="rgba(255, 120, 0, 0.05)" stroke-width="1"/>
<line x1="0" y1="660" x2="1920" y2="660" stroke="rgba(255, 120, 0, 0.05)" stroke-width="1"/>
<line x1="0" y1="720" x2="1920" y2="720" stroke="rgba(255, 120, 0, 0.05)" stroke-width="1"/>
<line x1="0" y1="780" x2="1920" y2="780" stroke="rgba(255, 120, 0, 0.05)" stroke-width="1"/>
<line x1="0" y1="840" x2="1920" y2="840" stroke="rgba(255, 120, 0, 0.05)" stroke-width="1"/>
<line x1="0" y1="900" x2="1920" y2="900" stroke="rgba(255, 120, 0, 0.05)" stroke-width="1"/>
<line x1="0" y1="960" x2="1920" y2="960" stroke="rgba(255, 120, 0, 0.05)" stroke-width="1"/>
<line x1="0" y1="1020" x2="1920" y2="1020" stroke="rgba(255, 120, 0, 0.05)" stroke-width="1"/>

</svg>