<svg xmlns="http://www.w3.org/2000/svg" width="1920" height="1080" viewBox="0 0 1920 1080">
  <defs>
    <radialGradient id="bg_grad" cx="50%" cy="50%" r="75%">
      <stop offset="0%" stop-color="#140f0c"/>
      <stop offset="100%" stop-color="#050302"/>
    </radialGradient>
    <linearGradient id="glow" x1="0%" y1="0%" x2="100%" y2="100%">
      <stop offset="0%" stop-color="#ff7b00"/>
      <stop offset="100%" stop-color="#8a2e00"/>
    </linearGradient>
    <radialGradient id="aura" cx="50%" cy="50%" r="50%">
      <stop offset="0%" stop-color="rgba(255, 123, 0, 0.4)"/>
      <stop offset="100%" stop-color="rgba(255, 123, 0, 0)"/>
    </radialGradient>
  </defs>
  <rect width="1920" height="1080" fill="url(#bg_grad)"/>
  <path d="M 0 300 L 0 300.0 L 60 311.9712207288919 L 120 323.7702626427135 L 180 335.227423327509 L 240 346.1779175541483 L 300 356.4642473395035 L 360 365.9384671971473 L 420 374.46431199708593 L 480 381.91915683009984 L 540 388.1957806884948 L 600 393.2039085967226 L 660 396.87151001182656 L 720 399.1458348191686 L 780 399.9941720229966 L 840 399.4043202198076 L 900 397.3847630878195 L 960 393.9645473685325 L 1020 389.192865095338 L 1080 383.1383460778683 L 1140 375.88807081809216 L 1200 367.5463180551151 L 1260 358.2330649524082 L 1320 348.0822614988648 L 1380 337.2399039425055 L 1440 325.8619349661111 L 1500 314.1120008059867 L 1560 302.1590975726096 L 1620 290.1751406254891 L 1680 278.332491961262 L 1740 266.8014811779266 L 1800 255.74795567051476 L 1860 245.33089529307128 L 1920 235.7001257946091 " fill="none" stroke="url(#glow)" stroke-width="3" stroke-opacity="0.8"/>
<path d="M 0 330 L 0 385.13393693948336 L 60 397.3794134882624 L 120 408.5565889534696 L 180 418.48824913802923 L 240 427.01692749856335 L 300 434.00740177856494 L 360 439.3488379582441 L 420 442.9565475287049 L 480 444.77333022886177 L 540 444.770380955988 L 600 442.94774647082613 L 660 439.334324656196 L 720 433.98740634085556 L 780 426.9917669530007 L 840 418.45832240524356 L 900 408.5223705220236 L 960 397.3414458916318 L 1020 385.09282215418466 L 1080 371.9707013267904 L 1140 358.1831347291759 L 1200 343.9487243285224 L 1260 329.49315680370967 L 1320 315.0456252814052 L 1380 300.8351954773992 L 1440 287.08717385803976 L 1500 274.01953540459454 L 1560 261.83946761836137 L 1620 250.7400855613505 L 1680 240.89737001559342 L 1740 232.4673773065827 L 1800 225.5837650291134 L 1860 220.35567290515985 L 1920 216.86599237280217 " fill="none" stroke="url(#glow)" stroke-width="3" stroke-opacity="0.76"/>
<path d="M 0 360 L 0 469.3912280250265 L 60 477.684280948264 L 120 483.92977860242297 L 180 488.0190573535266 L 240 489.8809690058593 L 300 489.48311868914976 L 360 486.8324284876876 L 420 481.97501700495127 L 480 474.9953969591679 L 540 466.015004770612 L 600 455.1900877239326 L 660 442.70898546617263 L 720 428.788853138918 L 780 413.6718831578702 L 840 397.6210913760199 L 900 380.9157409457692 L 960 363.84648349892205 L 1020 346.7103021817655 L 1080 329.8053445299355 L 1140 313.42573508440444 L 1200 297.8564580024054 L 1260 283.36839869928986 L 1320 270.21363079037644 L 1380 258.62103033394914 L 1440 248.79229368193856 L 1500 240.89842822257083 L 1560 235.07677707154915 L 1620 231.42862947832094 L 1680 230.01745852328995 L 1740 230.8678167677776 L 1800 233.96490907100488 L 1860 239.25485000653077 L 1920 246.64560139943194 " fill="none" stroke="url(#glow)" stroke-width="3" stroke-opacity="0.7200000000000001"/>
<path d="M 0 390 L 0 534.6367730575879 L 60 534.672689022267 L 120 531.9578279403356 L 180 526.5438096275266 L 240 518.5335751254797 L 300 508.0794294017404 L 360 495.38014545412256 L 420 480.67718488140883 L 480 464.2501067816845 L 540 446.4112522725786 L 600 427.4998057008611 L 660 407.875345460348 L 720 387.91100704154934 L 780 367.9863883094411 L 840 348.4803319069657 L 900 329.76372201816935 L 960 312.19243245185737 L 1020 296.1005601294669 L 1080 281.794072634241 L 1140 269.5449906059109 L 1200 259.58621559564926 L 1260 252.10710172340572 L 1320 247.2498553372326 L 1380 245.10683113074288 L 1440 245.71877612977383 L 1500 249.07405493673596 L 1560 255.1088709636931 L 1620 263.7084794476934 L 1680 274.7093691843242 L 1740 287.90237149645435 L 1800 303.03663732486365 L 1860 319.8244068211699 L 1920 337.9464807549841 " fill="none" stroke="url(#glow)" stroke-width="3" stroke-opacity="0.68"/>
<path d="M 0 420 L 0 565.4875882921091 L 60 554.4268564725595 L 120 540.583462786396 L 180 524.2439681540019 L 240 505.74660326696943 L 300 485.47426714752277 L 360 463.84660106487723 L 420 441.31130187999673 L 480 418.33485463418936 L 540 395.3928762187437 L 600 372.9602700135091 L 660 351.50139529530037 L 720 331.46045491126927 L 780 313.2523001942605 L 840 297.25384346017535 L 900 283.79625585030806 L 960 273.1581120248215 L 1020 265.5596236135307 L 1080 261.1580807926759 L 1140 260.0445963479256 L 1200 262.2422196221328 L 1260 267.70545938949033 L 1320 276.321225532683 L 1380 287.91117003013665 L 1440 302.2353787944768 L 1500 318.9973379404287 L 1560 337.85007167945463 L 1620 358.40332478552637 L 1680 380.23164095360244 L 1740 402.883169827235 L 1800 425.8890203881323 L 1860 448.7729670907101 L 1920 471.0613078227727 " fill="none" stroke="url(#glow)" stroke-width="3" stroke-opacity="0.64"/>
<path d="M 0 450 L 0 554.7326252181924 L 60 532.6053447257294 L 120 508.6229262772834 L 180 483.32396328817975 L 240 457.2766159258258 L 300 431.065851457231 L 360 405.2803071453045 L 420 380.49907072495705 L 480 357.27867534101364 L 540 336.1406010135957 L 600 317.55956332111253 L 660 301.95285231179685 L 720 289.6709610688454 L 780 280.9897143913882 L 840 276.10407436414374 L 900 275.12376192930884 L 960 278.07079279074185 L 1020 284.8789829887164 L 1080 295.3954352489732 L 1140 309.38397272587275 L 1200 326.5304430251814 L 1260 346.44977338957335 L 1320 368.6946186025926 L 1380 392.7654073977954 L 1440 418.12156175238323 L 1500 444.1936371041776 L 1560 470.3961108488364 L 1620 496.14053191523624 L 1680 520.8487361079046 L 1740 543.9658304284021 L 1800 564.9726547757881 L 1860 583.397441163247 L 1920 598.8264086099988 " fill="none" stroke="url(#glow)" stroke-width="3" stroke-opacity="0.6000000000000001"/>
<path d="M 0 480 L 0 506.81280153137476 L 60 477.26269888203007 L 120 447.77907620709504 L 180 419.07799301060584 L 240 391.85650350552584 L 300 366.7757274765249 L 360 344.444793870957 L 420 325.40604707501154 L 480 310.12187516557026 L 540 298.96348003589287 L 600 292.20186213156524 L 660 290.00123874760686 L 720 292.41505573449086 L 780 299.3846894755227 L 840 310.74087066024674 L 900 326.2077952751423 L 960 345.4098229692655 L 1020 367.8806001137305 L 1080 393.0743859861451 L 1140 420.37930700450397 L 1200 449.1322171091205 L 1260 478.63480338315657 L 1320 508.170545759587 L 1380 537.0221189195188 L 1440 564.4888137474093 L 1500 589.9035552337581 L 1560 612.6491035168095 L 1620 632.1730445936388 L 1680 648.0012066259189 L 1740 659.7491760027583 L 1800 667.1316334735966 L 1860 669.9692836074272 L 1920 668.1932092847406 " fill="none" stroke="url(#glow)" stroke-width="3" stroke-opacity="0.56"/>
<path d="M 0 510 L 0 438.0894383236279 L 60 408.0671120742965 L 120 380.7140671491924 L 180 356.74658828688325 L 240 336.7923035769669 L 300 321.37374898009705 L 360 310.89468485928853 L 420 305.6295228467658 L 480 305.7161399213435 L 540 311.1522678716109 L 600 321.79555269280024 L 660 337.36728236193494 L 720 357.45968537329605 L 780 381.5466089099815 L 840 408.9972970259671 L 900 439.0929080341751 L 960 471.04533856541696 L 1020 504.01786135907645 L 1080 537.1470363508453 L 1140 569.5653212794161 L 1200 600.4237897159965 L 1260 628.9143616074432 L 1320 654.2909641894703 L 1380 675.8890691364022 L 1440 693.1430943348826 L 1500 705.6012145873005 L 1560 712.9371934021622 L 1620 714.9589260363963 L 1680 711.6134700759014 L 1740 702.9884318202548 L 1800 689.3096721668079 L 1860 670.9353920693895 L 1920 648.3467524536661 " fill="none" stroke="url(#glow)" stroke-width="3" stroke-opacity="0.52"/>
<path d="M 0 540 L 0 373.5034510322558 L 60 351.8023431540498 L 120 335.40044459379885 L 180 324.7595947555598 L 240 320.17941527946755 L 300 321.7888733915992 L 360 329.5426504861464 L 420 343.2224181921963 L 480 362.4429859940419 L 540 386.6631473022977 L 600 415.20091857562693 L 660 447.25274239477295 L 720 481.9161137748894 L 780 518.2149926117172 L 840 555.1272867060909 L 900 591.6136315085776 L 960 626.6466562134206 L 1020 659.239912136489 L 1080 688.475648821244 L 1140 713.5306557620204 L 1200 733.6994421016675 L 1260 748.414101617047 L 1320 757.2603036404911 L 1380 759.9889596499813 L 1440 756.523237023936 L 1500 746.9607224695501 L 1560 731.5706742075629 L 1620 710.7864402855566 L 1680 685.193256502488 L 1740 655.5117675265869 L 1800 622.5777352137018 L 1860 587.3185054927621 L 1920 550.7268964562595 " fill="none" stroke="url(#glow)" stroke-width="3" stroke-opacity="0.48000000000000004"/>
<path d="M 0 570 L 0 340.2804223487022 L 60 335.1731401084453 L 120 337.1575564048338 L 180 346.17374247949795 L 240 361.949412301694 L 300 384.0081455222155 L 360 411.6837752205811 L 420 444.14050593998786 L 480 480.39815445159496 L 540 519.3617509848626 L 600 559.8546069759487 L 660 600.6538506983853 L 720 640.527357610984 L 780 678.2709601378823 L 840 712.7448131568851 L 900 742.907816969601 L 960 767.8490581903197 L 1020 786.8153190485154 L 1080 799.233824332546 L 1140 804.7295390238841 L 1200 803.136494238679 L 1260 794.5027994367144 L 1320 779.089189530603 L 1380 757.3611507720708 L 1440 729.9748632111314 L 1500 697.7573842615304 L 1560 661.6816718226622 L 1620 622.8372012519422 L 1680 582.3970635459896 L 1740 541.5825383553668 L 1800 501.62621171687465 L 1860 463.73475233648225 L 1920 429.0524705676269 " fill="none" stroke="url(#glow)" stroke-width="3" stroke-opacity="0.44000000000000006"/>
<path d="M 0 600 L 0 360.2689313342154 L 60 376.83808014294135 L 120 400.6181740220739 L 180 430.84081596713577 L 240 466.5294334020889 L 300 506.530833792441 L 360 549.5524673109678 L 420 594.2041925019051 L 480 639.0431953858027 L 540 682.6206105513277 L 600 723.5283377846521 L 660 760.4445414687334 L 720 792.176362547939 L 780 817.6984629227728 L 840 836.1861568045384 L 900 847.0420584692502 L 960 849.9153853521935 L 1020 844.7132927496868 L 1080 831.6038738741915 L 1140 811.010728323151 L 1200 783.5992744685284 L 1260 750.2552480495223 L 1320 712.0560817351462 L 1380 670.2360904578254 L 1440 626.1465874709088 L 1500 581.2122198845477 L 1560 536.8849345929355 L 1620 494.59706207415195 L 1680 455.7150340476976 L 1740 421.4952304932049 L 1800 393.0433827285866 L 1860 371.2788443403049 L 1920 356.904884465411 " fill="none" stroke="url(#glow)" stroke-width="3" stroke-opacity="0.4"/>
<path d="M 0 630 L 0 443.03181372384614 L 60 480.9859490104609 L 120 524.080528832811 L 180 570.828946418605 L 240 619.6185508390389 L 300 668.7662776194655 L 360 716.5767083621263 L 420 761.4005565344406 L 480 801.6915618751926 L 540 836.059830767855 L 600 863.3197825315541 L 660 882.531047656451 L 720 893.030907142693 L 780 894.4571539033398 L 840 886.7605875957481 L 900 870.206711855025 L 960 845.3665753811529 L 1020 813.0970728290724 L 1080 774.5113850496043 L 1140 730.9405783857303 L 1200 683.8876877093003 L 1260 634.9758671669333 L 1320 585.8923972464108 L 1380 538.3304797167765 L 1440 493.93082830570074 L 1500 454.2250700239855 L 1560 420.5829095863279 L 1620 394.1648795642787 L 1680 375.8823062198241 L 1740 366.3658720531955 L 1800 365.9438595430363 L 1860 374.6308265910171 L 1920 392.12710432700555 " fill="none" stroke="url(#glow)" stroke-width="3" stroke-opacity="0.36000000000000004"/>
<path d="M 0 660 L 0 581.7636605043008 L 60 634.503481201484 L 120 688.1803217292675 L 180 740.8215102724923 L 240 790.4924361511216 L 300 835.3676484900636 L 360 873.7979431686979 L 420 904.3709725448126 L 480 925.9631504914809 L 540 937.7809451904275 L 600 939.3900421348608 L 660 930.7313055753791 L 720 912.1229518115598 L 780 884.2488544588293 L 840 848.1334114824938 L 900 805.1038976578731 L 960 756.7416860372412 L 1020 704.8241310782125 L 1080 651.2592492805036 L 1140 598.01559787598 L 1200 547.0499285927445 L 1260 500.2352752820297 L 1320 459.2921182518127 L 1380 425.7251550793536 L 1440 400.7680016317509 L 1500 385.33785558138237 L 1560 380.00178857251876 L 1620 384.9559058320825 L 1680 400.0181391274646 L 1740 424.6349379366337 L 1800 457.90161292406253 L 1860 498.5955840815666 L 1920 545.2213116351962 " fill="none" stroke="url(#glow)" stroke-width="3" stroke-opacity="0.32000000000000006"/>
<path d="M 0 690 L 0 753.4603964859056 L 60 808.8910020227215 L 120 859.6758123271602 L 180 903.8303556934117 L 240 939.6292453086072 L 300 965.6736006193905 L 360 980.9457101112262 L 420 984.8487994928859 L 480 977.2303513010431 L 540 958.3880646860595 L 600 929.0582224938497 L 660 890.3869202127578 L 720 843.88528104564 L 780 791.3704071269281 L 840 734.8943742801048 L 900 676.6640449226744 L 960 618.9548325165978 L 1020 564.0217873120953 L 1080 514.0114778061026 L 1140 470.8781112432372 L 1200 436.3071708419501 L 1260 411.6495537043147 L 1320 397.86878304227207 L 1380 395.5033574600136 L 1440 404.64570853525044 L 1500 424.9385889547676 L 1560 455.589032341798 L 1620 495.39933927977427 L 1680 542.813878719876 L 1740 595.9798759564608 L 1800 652.8198118141154 L 1860 711.1126039693374 L 1920 768.5803981583971 " fill="none" stroke="url(#glow)" stroke-width="3" stroke-opacity="0.28"/>
<path d="M 0 720 L 0 923.6658456028247 L 60 966.7894231179661 L 120 999.6781803362244 L 180 1020.9681588040162 L 240 1029.7764231791805 L 300 1025.737678215802 L 360 1009.019418243268 L 420 980.3149808622491 L 480 940.8147929338573 L 540 892.1570013447474 L 600 836.3595359829435 L 660 775.7364224002066 L 720 712.8018148318275 L 780 650.165729504512 L 840 590.42580236767 L 900 536.0595602580252 L 960 489.32167321442785 L 1020 452.15044908209876 L 1080 426.0874482504708 L 1140 412.2135522522252 L 1200 411.1041375786462 L 1260 422.80521373725367 L 1320 446.8315151512232 L 1380 482.1866260331038 L 1440 527.4043036165697 L 1500 580.609285994274 L 1560 639.5950627467065 L 1620 701.9153830681972 L 1680 764.9857063764312 L 1740 826.1903880583989 L 1800 882.9911551588468 L 1860 933.0323733209484 L 1920 974.2387393617079 " fill="none" stroke="url(#glow)" stroke-width="3" stroke-opacity="0.24"/>

</svg>