<svg xmlns="http://www.w3.org/2000/svg" width="1920" height="1080" viewBox="0 0 1920 1080">
  <defs>
    <radialGradient id="bg_grad" cx="50%" cy="50%" r="75%">
      <stop offset="0%" stop-color="#140f0c"/>
      <stop offset="100%" stop-color="#050302"/>
    </radialGradient>
    <linearGradient id="glow" x1="0%" y1="0%" x2="100%" y2="100%">
      <stop offset="0%" stop-color="#ff7b00"/>
      <stop offset="100%" stop-color="#8a2e00"/>
    </linearGradient>
    <radialGradient id="aura" cx="50%" cy="50%" r="50%">
      <stop offset="0%" stop-color="rgba(255, 123, 0, 0.4)"/>
      <stop offset="100%" stop-color="rgba(255, 123, 0, 0)"/>
    </radialGradient>
  </defs>
  <rect width="1920" height="1080" fill="url(#bg_grad)"/>
  <circle cx="960" cy="540" r="40" fill="none" stroke="url(#glow)" stroke-width="4" stroke-opacity="0.32242295285875505"/>
<circle cx="960" cy="540" r="80" fill="none" stroke="url(#glow)" stroke-width="2" stroke-opacity="0.12742926878865685"/>
<circle cx="960" cy="540" r="120" fill="none" stroke="url(#glow)" stroke-width="1" stroke-opacity="0.5447514272298933"/>
<circle cx="960" cy="540" r="120" fill="url(#aura)" opacity="0.3"/>
<circle cx="960" cy="540" r="160" fill="none" stroke="url(#glow)" stroke-width="4" stroke-opacity="0.25646446594586175"/>
<circle cx="960" cy="540" r="200" fill="none" stroke="url(#glow)" stroke-width="2" stroke-opacity="0.2771153725046429"/>
<circle cx="960" cy="540" r="240" fill="none" stroke="url(#glow)" stroke-width="4" stroke-opacity="0.29791917158671594"/>
<circle cx="960" cy="540" r="240" fill="url(#aura)" opacity="0.3"/>
<circle cx="960" cy="540" r="280" fill="none" stroke="url(#glow)" stroke-width="2" stroke-opacity="0.44187370762242095"/>
<circle cx="960" cy="540" r="320" fill="none" stroke="url(#glow)" stroke-width="3" stroke-opacity="0.39958088942159353"/>
<circle cx="960" cy="540" r="360" fill="none" stroke="url(#glow)" stroke-width="4" stroke-opacity="0.2543960545809297"/>
<circle cx="960" cy="540" r="360" fill="url(#aura)" opacity="0.3"/>
<circle cx="960" cy="540" r="400" fill="none" stroke="url(#glow)" stroke-width="4" stroke-opacity="0.6799049603502062"/>
<circle cx="960" cy="540" r="440" fill="none" stroke="url(#glow)" stroke-width="3" stroke-opacity="0.3764973990689231"/>
<circle cx="960" cy="540" r="480" fill="none" stroke="url(#glow)" stroke-width="4" stroke-opacity="0.20155942651610903"/>
<circle cx="960" cy="540" r="480" fill="url(#aura)" opacity="0.3"/>
<circle cx="960" cy="540" r="520" fill="none" stroke="url(#glow)" stroke-width="1" stroke-opacity="0.2104286637167605"/>
<circle cx="960" cy="540" r="560" fill="none" stroke="url(#glow)" stroke-width="1" stroke-opacity="0.4143666492424477"/>
<path d="M 960 100 L 960 400 M 960 680 L 960 980 M 520 540 L 820 540 M 1100 540 L 1400 540" stroke="url(#glow)" stroke-width="2" stroke-opacity="0.8" stroke-dasharray="10 5"/>

</svg>