<svg xmlns="http://www.w3.org/2000/svg" width="1920" height="1080" viewBox="0 0 1920 1080">
  <defs>
    <radialGradient id="bg_grad" cx="50%" cy="50%" r="75%">
      <stop offset="0%" stop-color="#140f0c"/>
      <stop offset="100%" stop-color="#050302"/>
    </radialGradient>
    <linearGradient id="glow" x1="0%" y1="0%" x2="100%" y2="100%">
      <stop offset="0%" stop-color="#ff7b00"/>
      <stop offset="100%" stop-color="#8a2e00"/>
    </linearGradient>
    <radialGradient id="aura" cx="50%" cy="50%" r="50%">
      <stop offset="0%" stop-color="rgba(255, 123, 0, 0.4)"/>
      <stop offset="100%" stop-color="rgba(255, 123, 0, 0)"/>
    </radialGradient>
  </defs>
  <rect width="1920" height="1080" fill="url(#bg_grad)"/>
  <circle cx="580.5184709948164" cy="694.2715218430797" r="3.8921049437992288" fill="#ffcc80" opacity="0.7"/>
<line x1="580.5184709948164" y1="694.2715218430797" x2="606.5609461555811" y2="706.1224521981178" stroke="url(#glow)" stroke-width="1" stroke-opacity="0.4"/>
<line x1="580.5184709948164" y1="694.2715218430797" x2="591.2926049646958" y2="748.3828605432928" stroke="url(#glow)" stroke-width="1" stroke-opacity="0.4"/>
<circle cx="697.5211895296519" cy="770.2502957588052" r="4.801711163294003" fill="#ffcc80" opacity="0.7"/>
<line x1="697.5211895296519" y1="770.2502957588052" x2="760.1420872626916" y2="732.0121191258871" stroke="url(#glow)" stroke-width="1" stroke-opacity="0.4"/>
<line x1="697.5211895296519" y1="770.2502957588052" x2="758.853980203522" y2="776.3325945028498" stroke="url(#glow)" stroke-width="1" stroke-opacity="0.4"/>
<circle cx="475.61482479701215" cy="705.5662622599577" r="4.166578164877163" fill="#ffcc80" opacity="0.7"/>
<line x1="475.61482479701215" y1="705.5662622599577" x2="435.5469461339958" y2="696.4147217653145" stroke="url(#glow)" stroke-width="1" stroke-opacity="0.4"/>
<line x1="475.61482479701215" y1="705.5662622599577" x2="398.2640098649069" y2="704.4891799220163" stroke="url(#glow)" stroke-width="1" stroke-opacity="0.4"/>
<circle cx="176.7811243135144" cy="841.209620400145" r="2.537800523050496" fill="#ffcc80" opacity="0.7"/>
<line x1="176.7811243135144" y1="841.209620400145" x2="229.83399683095737" y2="811.1907960828933" stroke="url(#glow)" stroke-width="1" stroke-opacity="0.4"/>
<line x1="176.7811243135144" y1="841.209620400145" x2="180.72470378692014" y2="910.6321346948355" stroke="url(#glow)" stroke-width="1" stroke-opacity="0.4"/>
<circle cx="496.8678444124815" cy="831.3182138279641" r="4.384808996250401" fill="#ffcc80" opacity="0.7"/>
<line x1="496.8678444124815" y1="831.3182138279641" x2="608.1118472993462" y2="891.5854252500495" stroke="url(#glow)" stroke-width="1" stroke-opacity="0.4"/>
<line x1="496.8678444124815" y1="831.3182138279641" x2="460.7723450079243" y2="840.8286493758133" stroke="url(#glow)" stroke-width="1" stroke-opacity="0.4"/>
<circle cx="457.7664515752241" cy="571.2146222312068" r="4.4841862361401414" fill="#ffcc80" opacity="0.7"/>
<line x1="457.7664515752241" y1="571.2146222312068" x2="593.0700015647446" y2="646.2828150430062" stroke="url(#glow)" stroke-width="1" stroke-opacity="0.4"/>
<line x1="457.7664515752241" y1="571.2146222312068" x2="450.30179754648" y2="560.9547228947616" stroke="url(#glow)" stroke-width="1" stroke-opacity="0.4"/>
<circle cx="378.12945847123166" cy="772.8349325858129" r="3.4280153003956735" fill="#ffcc80" opacity="0.7"/>
<line x1="378.12945847123166" y1="772.8349325858129" x2="327.2619382734671" y2="713.8433665178601" stroke="url(#glow)" stroke-width="1" stroke-opacity="0.4"/>
<line x1="378.12945847123166" y1="772.8349325858129" x2="461.98656218340005" y2="820.7962381852165" stroke="url(#glow)" stroke-width="1" stroke-opacity="0.4"/>
<circle cx="416.4640936735634" cy="584.7233062490993" r="4.93198766986937" fill="#ffcc80" opacity="0.7"/>
<line x1="416.4640936735634" y1="584.7233062490993" x2="521.142562040432" y2="567.3606884344599" stroke="url(#glow)" stroke-width="1" stroke-opacity="0.4"/>
<line x1="416.4640936735634" y1="584.7233062490993" x2="448.0310529374964" y2="567.1496076979645" stroke="url(#glow)" stroke-width="1" stroke-opacity="0.4"/>
<circle cx="686.390624254065" cy="557.1295147616878" r="3.7003524409718875" fill="#ffcc80" opacity="0.7"/>
<line x1="686.390624254065" y1="557.1295147616878" x2="671.3831058965158" y2="669.6922668021829" stroke="url(#glow)" stroke-width="1" stroke-opacity="0.4"/>
<line x1="686.390624254065" y1="557.1295147616878" x2="670.148811862595" y2="519.9634696443295" stroke="url(#glow)" stroke-width="1" stroke-opacity="0.4"/>
<circle cx="287.2180897242987" cy="632.3032972843364" r="2.538063509660207" fill="#ffcc80" opacity="0.7"/>
<line x1="287.2180897242987" y1="632.3032972843364" x2="292.45874824575566" y2="625.1307532105579" stroke="url(#glow)" stroke-width="1" stroke-opacity="0.4"/>
<line x1="287.2180897242987" y1="632.3032972843364" x2="294.6385758672288" y2="659.200880029919" stroke="url(#glow)" stroke-width="1" stroke-opacity="0.4"/>
<circle cx="618.5407415493154" cy="439.79867694207985" r="4.786624820759985" fill="#ffcc80" opacity="0.7"/>
<line x1="618.5407415493154" y1="439.79867694207985" x2="598.9120808927408" y2="501.1566553952452" stroke="url(#glow)" stroke-width="1" stroke-opacity="0.4"/>
<line x1="618.5407415493154" y1="439.79867694207985" x2="529.6611774857831" y2="400.20736917711474" stroke="url(#glow)" stroke-width="1" stroke-opacity="0.4"/>
<circle cx="416.205735738438" cy="523.2383851388379" r="3.151538642248718" fill="#ffcc80" opacity="0.7"/>
<line x1="416.205735738438" y1="523.2383851388379" x2="410.5135986292974" y2="435.0187072037518" stroke="url(#glow)" stroke-width="1" stroke-opacity="0.4"/>
<line x1="416.205735738438" y1="523.2383851388379" x2="408.6852875754122" y2="504.48170525466605" stroke="url(#glow)" stroke-width="1" stroke-opacity="0.4"/>
<circle cx="495.05527761939805" cy="552.8554040642846" r="2.2930573620741423" fill="#ffcc80" opacity="0.7"/>
<line x1="495.05527761939805" y1="552.8554040642846" x2="497.28127162180164" y2="572.6129273201445" stroke="url(#glow)" stroke-width="1" stroke-opacity="0.4"/>
<line x1="495.05527761939805" y1="552.8554040642846" x2="440.5975084042995" y2="510.52107348151503" stroke="url(#glow)" stroke-width="1" stroke-opacity="0.4"/>
<circle cx="172.9674283695113" cy="467.60100834623245" r="2.9791299409335625" fill="#ffcc80" opacity="0.7"/>
<line x1="172.9674283695113" y1="467.60100834623245" x2="114.75823640820764" y2="402.30456504896443" stroke="url(#glow)" stroke-width="1" stroke-opacity="0.4"/>
<line x1="172.9674283695113" y1="467.60100834623245" x2="138.70767433471752" y2="478.6018849455988" stroke="url(#glow)" stroke-width="1" stroke-opacity="0.4"/>
<circle cx="361.4699631295957" cy="643.3932095955603" r="2.557213537686203" fill="#ffcc80" opacity="0.7"/>
<line x1="361.4699631295957" y1="643.3932095955603" x2="319.5210841643649" y2="618.2723618360945" stroke="url(#glow)" stroke-width="1" stroke-opacity="0.4"/>
<line x1="361.4699631295957" y1="643.3932095955603" x2="367.27851843154315" y2="601.9596465907969" stroke="url(#glow)" stroke-width="1" stroke-opacity="0.4"/>
<circle cx="500.30739048170096" cy="749.6000926235816" r="2.8039160926838433" fill="#ffcc80" opacity="0.7"/>
<line x1="500.30739048170096" y1="749.6000926235816" x2="436.50766388809654" y2="809.5120289666356" stroke="url(#glow)" stroke-width="1" stroke-opacity="0.4"/>
<line x1="500.30739048170096" y1="749.6000926235816" x2="528.4196941392065" y2="790.5644965559725" stroke="url(#glow)" stroke-width="1" stroke-opacity="0.4"/>
<circle cx="456.8855692535211" cy="741.4539811514167" r="4.828880682027357" fill="#ffcc80" opacity="0.7"/>
<line x1="456.8855692535211" y1="741.4539811514167" x2="377.2983179461905" y2="770.2564479562272" stroke="url(#glow)" stroke-width="1" stroke-opacity="0.4"/>
<line x1="456.8855692535211" y1="741.4539811514167" x2="473.9973610532735" y2="754.2567783796454" stroke="url(#glow)" stroke-width="1" stroke-opacity="0.4"/>
<circle cx="325.3110337291064" cy="771.4299104475664" r="3.537322545231376" fill="#ffcc80" opacity="0.7"/>
<line x1="325.3110337291064" y1="771.4299104475664" x2="342.5727850270467" y2="784.5253868809634" stroke="url(#glow)" stroke-width="1" stroke-opacity="0.4"/>
<line x1="325.3110337291064" y1="771.4299104475664" x2="261.78173238642114" y2="748.9091310411658" stroke="url(#glow)" stroke-width="1" stroke-opacity="0.4"/>
<circle cx="563.2977398532258" cy="398.5069835676937" r="2.0370218446518633" fill="#ffcc80" opacity="0.7"/>
<line x1="563.2977398532258" y1="398.5069835676937" x2="488.8311868886995" y2="443.3012104336672" stroke="url(#glow)" stroke-width="1" stroke-opacity="0.4"/>
<line x1="563.2977398532258" y1="398.5069835676937" x2="553.2194440329962" y2="335.2767142343627" stroke="url(#glow)" stroke-width="1" stroke-opacity="0.4"/>
<circle cx="610.7418892505984" cy="685.8923571352218" r="3.5633135922904966" fill="#ffcc80" opacity="0.7"/>
<line x1="610.7418892505984" y1="685.8923571352218" x2="598.6948691948421" y2="657.9009912409572" stroke="url(#glow)" stroke-width="1" stroke-opacity="0.4"/>
<line x1="610.7418892505984" y1="685.8923571352218" x2="606.0539146944317" y2="725.143805020659" stroke="url(#glow)" stroke-width="1" stroke-opacity="0.4"/>
<circle cx="554.1928668129967" cy="763.0237920921197" r="2.8278856148072107" fill="#ffcc80" opacity="0.7"/>
<line x1="554.1928668129967" y1="763.0237920921197" x2="527.3267805178969" y2="846.1491640191938" stroke="url(#glow)" stroke-width="1" stroke-opacity="0.4"/>
<line x1="554.1928668129967" y1="763.0237920921197" x2="476.96496977258425" y2="855.0442092958924" stroke="url(#glow)" stroke-width="1" stroke-opacity="0.4"/>
<circle cx="467.0814994932027" cy="518.382999984249" r="3.8500063761073697" fill="#ffcc80" opacity="0.7"/>
<line x1="467.0814994932027" y1="518.382999984249" x2="441.04093544186406" y2="525.4433337818261" stroke="url(#glow)" stroke-width="1" stroke-opacity="0.4"/>
<line x1="467.0814994932027" y1="518.382999984249" x2="517.219366936685" y2="520.5161797572943" stroke="url(#glow)" stroke-width="1" stroke-opacity="0.4"/>
<circle cx="578.8253149654863" cy="567.9896598330847" r="4.586594931696543" fill="#ffcc80" opacity="0.7"/>
<line x1="578.8253149654863" y1="567.9896598330847" x2="529.4584598421868" y2="587.4554394707231" stroke="url(#glow)" stroke-width="1" stroke-opacity="0.4"/>
<line x1="578.8253149654863" y1="567.9896598330847" x2="611.1673699584547" y2="503.0440183515729" stroke="url(#glow)" stroke-width="1" stroke-opacity="0.4"/>
<circle cx="393.85468136867024" cy="620.1281033302901" r="3.809633805169439" fill="#ffcc80" opacity="0.7"/>
<line x1="393.85468136867024" y1="620.1281033302901" x2="374.6123026241964" y2="566.3707731850014" stroke="url(#glow)" stroke-width="1" stroke-opacity="0.4"/>
<line x1="393.85468136867024" y1="620.1281033302901" x2="415.9856047762643" y2="665.4017345277505" stroke="url(#glow)" stroke-width="1" stroke-opacity="0.4"/>
<circle cx="396.13196378708153" cy="912.7159971579372" r="3.89870738590525" fill="#ffcc80" opacity="0.7"/>
<line x1="396.13196378708153" y1="912.7159971579372" x2="481.6159693738139" y2="895.1604267816097" stroke="url(#glow)" stroke-width="1" stroke-opacity="0.4"/>
<line x1="396.13196378708153" y1="912.7159971579372" x2="377.5200351937104" y2="948.7465568803984" stroke="url(#glow)" stroke-width="1" stroke-opacity="0.4"/>
<circle cx="530.9444361999425" cy="551.6568383858869" r="4.796201457765337" fill="#ffcc80" opacity="0.7"/>
<line x1="530.9444361999425" y1="551.6568383858869" x2="584.2322358767415" y2="714.9614428734465" stroke="url(#glow)" stroke-width="1" stroke-opacity="0.4"/>
<line x1="530.9444361999425" y1="551.6568383858869" x2="567.350558568989" y2="628.932033743103" stroke="url(#glow)" stroke-width="1" stroke-opacity="0.4"/>
<circle cx="737.3313920912899" cy="731.6950601911765" r="4.8289247462533496" fill="#ffcc80" opacity="0.7"/>
<line x1="737.3313920912899" y1="731.6950601911765" x2="759.7517221269559" y2="818.2224467754332" stroke="url(#glow)" stroke-width="1" stroke-opacity="0.4"/>
<line x1="737.3313920912899" y1="731.6950601911765" x2="746.5841295135078" y2="715.1808514611043" stroke="url(#glow)" stroke-width="1" stroke-opacity="0.4"/>
<circle cx="652.9586447560928" cy="472.77926198538694" r="4.018932957186621" fill="#ffcc80" opacity="0.7"/>
<line x1="652.9586447560928" y1="472.77926198538694" x2="680.1980681435257" y2="505.3624285420802" stroke="url(#glow)" stroke-width="1" stroke-opacity="0.4"/>
<line x1="652.9586447560928" y1="472.77926198538694" x2="652.4711874342489" y2="501.7065603944527" stroke="url(#glow)" stroke-width="1" stroke-opacity="0.4"/>
<circle cx="369.7692285460939" cy="758.7726987770171" r="3.3472001625009016" fill="#ffcc80" opacity="0.7"/>
<line x1="369.7692285460939" y1="758.7726987770171" x2="315.8237470190124" y2="720.6390653601832" stroke="url(#glow)" stroke-width="1" stroke-opacity="0.4"/>
<line x1="369.7692285460939" y1="758.7726987770171" x2="259.0351867510281" y2="734.4824297324069" stroke="url(#glow)" stroke-width="1" stroke-opacity="0.4"/>
<circle cx="605.6259597013532" cy="576.92994460407" r="2.1102954922032557" fill="#ffcc80" opacity="0.7"/>
<line x1="605.6259597013532" y1="576.92994460407" x2="681.8645026103347" y2="561.6047634829902" stroke="url(#glow)" stroke-width="1" stroke-opacity="0.4"/>
<line x1="605.6259597013532" y1="576.92994460407" x2="631.2316926343805" y2="514.8885061692827" stroke="url(#glow)" stroke-width="1" stroke-opacity="0.4"/>
<circle cx="600.0923945774799" cy="136.94196495589003" r="3.0650264583454687" fill="#ffcc80" opacity="0.7"/>
<line x1="600.0923945774799" y1="136.94196495589003" x2="591.0175661158064" y2="124.93420482844346" stroke="url(#glow)" stroke-width="1" stroke-opacity="0.4"/>
<line x1="600.0923945774799" y1="136.94196495589003" x2="674.9123222713337" y2="129.2086972399426" stroke="url(#glow)" stroke-width="1" stroke-opacity="0.4"/>
<circle cx="371.5045250386984" cy="502.86594799169154" r="4.897150333141485" fill="#ffcc80" opacity="0.7"/>
<line x1="371.5045250386984" y1="502.86594799169154" x2="364.9072588339406" y2="505.9473523398658" stroke="url(#glow)" stroke-width="1" stroke-opacity="0.4"/>
<line x1="371.5045250386984" y1="502.86594799169154" x2="368.22396201692356" y2="562.5559180463371" stroke="url(#glow)" stroke-width="1" stroke-opacity="0.4"/>
<circle cx="377.65775679905204" cy="331.70160870154575" r="3.7257061948112784" fill="#ffcc80" opacity="0.7"/>
<line x1="377.65775679905204" y1="331.70160870154575" x2="330.7128694011489" y2="348.34385236021853" stroke="url(#glow)" stroke-width="1" stroke-opacity="0.4"/>
<line x1="377.65775679905204" y1="331.70160870154575" x2="386.9819418431053" y2="265.717640806623" stroke="url(#glow)" stroke-width="1" stroke-opacity="0.4"/>
<circle cx="436.02174664279994" cy="354.5961927630264" r="2.073687959077308" fill="#ffcc80" opacity="0.7"/>
<line x1="436.02174664279994" y1="354.5961927630264" x2="477.08597790075237" y2="386.2630527933027" stroke="url(#glow)" stroke-width="1" stroke-opacity="0.4"/>
<line x1="436.02174664279994" y1="354.5961927630264" x2="460.14421628502345" y2="348.68098029939466" stroke="url(#glow)" stroke-width="1" stroke-opacity="0.4"/>
<circle cx="651.2206823062244" cy="324.80502781561916" r="2.9356710316926242" fill="#ffcc80" opacity="0.7"/>
<line x1="651.2206823062244" y1="324.80502781561916" x2="618.5110653646587" y2="334.23396123357065" stroke="url(#glow)" stroke-width="1" stroke-opacity="0.4"/>
<line x1="651.2206823062244" y1="324.80502781561916" x2="594.6892297411945" y2="330.89304515128066" stroke="url(#glow)" stroke-width="1" stroke-opacity="0.4"/>
<circle cx="359.54606212099196" cy="442.7802653017868" r="2.9567284226531014" fill="#ffcc80" opacity="0.7"/>
<line x1="359.54606212099196" y1="442.7802653017868" x2="331.23497045197405" y2="529.423404644771" stroke="url(#glow)" stroke-width="1" stroke-opacity="0.4"/>
<line x1="359.54606212099196" y1="442.7802653017868" x2="432.46289997843223" y2="507.13456628223355" stroke="url(#glow)" stroke-width="1" stroke-opacity="0.4"/>
<circle cx="439.1067083176789" cy="174.22984549606025" r="2.4930622785521095" fill="#ffcc80" opacity="0.7"/>
<line x1="439.1067083176789" y1="174.22984549606025" x2="476.30532937356423" y2="170.4540822113118" stroke="url(#glow)" stroke-width="1" stroke-opacity="0.4"/>
<line x1="439.1067083176789" y1="174.22984549606025" x2="452.6076456269591" y2="200.5033967902801" stroke="url(#glow)" stroke-width="1" stroke-opacity="0.4"/>
<circle cx="222.08267843268135" cy="216.05227709264142" r="2.695566642234231" fill="#ffcc80" opacity="0.7"/>
<line x1="222.08267843268135" y1="216.05227709264142" x2="195.66931198866143" y2="233.99127622501064" stroke="url(#glow)" stroke-width="1" stroke-opacity="0.4"/>
<line x1="222.08267843268135" y1="216.05227709264142" x2="188.30050795214035" y2="174.9655644089881" stroke="url(#glow)" stroke-width="1" stroke-opacity="0.4"/>
<circle cx="777.5271580497408" cy="392.7554020473325" r="2.591973307346739" fill="#ffcc80" opacity="0.7"/>
<line x1="777.5271580497408" y1="392.7554020473325" x2="736.0053154604822" y2="365.59137237573464" stroke="url(#glow)" stroke-width="1" stroke-opacity="0.4"/>
<line x1="777.5271580497408" y1="392.7554020473325" x2="768.0037469718387" y2="360.1776990673484" stroke="url(#glow)" stroke-width="1" stroke-opacity="0.4"/>
<circle cx="577.9862345251732" cy="82.20488301327049" r="2.1876912544074933" fill="#ffcc80" opacity="0.7"/>
<line x1="577.9862345251732" y1="82.20488301327049" x2="659.3430882196058" y2="142.6935602673844" stroke="url(#glow)" stroke-width="1" stroke-opacity="0.4"/>
<line x1="577.9862345251732" y1="82.20488301327049" x2="595.1215143482758" y2="123.17921760489591" stroke="url(#glow)" stroke-width="1" stroke-opacity="0.4"/>
<circle cx="461.12023347156764" cy="385.8419749661541" r="4.587909642371923" fill="#ffcc80" opacity="0.7"/>
<line x1="461.12023347156764" y1="385.8419749661541" x2="390.8143489841839" y2="373.4737336796282" stroke="url(#glow)" stroke-width="1" stroke-opacity="0.4"/>
<line x1="461.12023347156764" y1="385.8419749661541" x2="404.7515547934184" y2="346.50474584062124" stroke="url(#glow)" stroke-width="1" stroke-opacity="0.4"/>
<circle cx="455.5012578179514" cy="282.8901583315585" r="4.536553408008677" fill="#ffcc80" opacity="0.7"/>
<line x1="455.5012578179514" y1="282.8901583315585" x2="387.6475919232663" y2="221.25500747303434" stroke="url(#glow)" stroke-width="1" stroke-opacity="0.4"/>
<line x1="455.5012578179514" y1="282.8901583315585" x2="444.0305625249004" y2="242.4725889070023" stroke="url(#glow)" stroke-width="1" stroke-opacity="0.4"/>
<circle cx="526.5116433272624" cy="313.40596213532666" r="2.401843308952132" fill="#ffcc80" opacity="0.7"/>
<line x1="526.5116433272624" y1="313.40596213532666" x2="558.016939733409" y2="342.204712877226" stroke="url(#glow)" stroke-width="1" stroke-opacity="0.4"/>
<line x1="526.5116433272624" y1="313.40596213532666" x2="557.9119254923863" y2="383.58911393538466" stroke="url(#glow)" stroke-width="1" stroke-opacity="0.4"/>
<circle cx="418.2318456369818" cy="344.38911478744626" r="2.4136018956036724" fill="#ffcc80" opacity="0.7"/>
<line x1="418.2318456369818" y1="344.38911478744626" x2="394.36035760325626" y2="365.78102796014224" stroke="url(#glow)" stroke-width="1" stroke-opacity="0.4"/>
<line x1="418.2318456369818" y1="344.38911478744626" x2="367.5676688787465" y2="286.5554330156139" stroke="url(#glow)" stroke-width="1" stroke-opacity="0.4"/>
<circle cx="180.34397270283176" cy="-154.214445409122" r="3.664737727497492" fill="#ffcc80" opacity="0.7"/>
<line x1="180.34397270283176" y1="-154.214445409122" x2="152.90965268256514" y2="-152.4264654693714" stroke="url(#glow)" stroke-width="1" stroke-opacity="0.4"/>
<line x1="180.34397270283176" y1="-154.214445409122" x2="158.73016225499487" y2="-103.90404661980602" stroke="url(#glow)" stroke-width="1" stroke-opacity="0.4"/>
<circle cx="707.5249837970773" cy="401.75992702322344" r="2.028750318689844" fill="#ffcc80" opacity="0.7"/>
<line x1="707.5249837970773" y1="401.75992702322344" x2="767.622125113576" y2="471.2665491380082" stroke="url(#glow)" stroke-width="1" stroke-opacity="0.4"/>
<line x1="707.5249837970773" y1="401.75992702322344" x2="765.3323385390347" y2="388.39116790905297" stroke="url(#glow)" stroke-width="1" stroke-opacity="0.4"/>
<circle cx="346.21053276232146" cy="362.201770320573" r="3.2468913058223356" fill="#ffcc80" opacity="0.7"/>
<line x1="346.21053276232146" y1="362.201770320573" x2="377.20896071845135" y2="313.2825861900851" stroke="url(#glow)" stroke-width="1" stroke-opacity="0.4"/>
<line x1="346.21053276232146" y1="362.201770320573" x2="357.07859625197284" y2="368.4162558153945" stroke="url(#glow)" stroke-width="1" stroke-opacity="0.4"/>
<circle cx="582.654544902186" cy="230.6222803553956" r="2.824558754820602" fill="#ffcc80" opacity="0.7"/>
<line x1="582.654544902186" y1="230.6222803553956" x2="553.1520009387785" y2="223.5180476552304" stroke="url(#glow)" stroke-width="1" stroke-opacity="0.4"/>
<line x1="582.654544902186" y1="230.6222803553956" x2="503.2329859565191" y2="252.44539168252555" stroke="url(#glow)" stroke-width="1" stroke-opacity="0.4"/>
<circle cx="592.9219844889066" cy="166.4597347679443" r="2.3396329858760696" fill="#ffcc80" opacity="0.7"/>
<line x1="592.9219844889066" y1="166.4597347679443" x2="657.9973925954667" y2="223.25742842758606" stroke="url(#glow)" stroke-width="1" stroke-opacity="0.4"/>
<line x1="592.9219844889066" y1="166.4597347679443" x2="614.1642422109132" y2="123.63335221292485" stroke="url(#glow)" stroke-width="1" stroke-opacity="0.4"/>
<circle cx="593.2670822259026" cy="315.7402760707973" r="4.1569407233901305" fill="#ffcc80" opacity="0.7"/>
<line x1="593.2670822259026" y1="315.7402760707973" x2="448.26518992888344" y2="272.2729888522733" stroke="url(#glow)" stroke-width="1" stroke-opacity="0.4"/>
<line x1="593.2670822259026" y1="315.7402760707973" x2="668.5770436149725" y2="372.2227889067528" stroke="url(#glow)" stroke-width="1" stroke-opacity="0.4"/>
<circle cx="575.0661068633696" cy="228.89609978311444" r="4.997938007836723" fill="#ffcc80" opacity="0.7"/>
<line x1="575.0661068633696" y1="228.89609978311444" x2="531.0636004230365" y2="243.27523884127356" stroke="url(#glow)" stroke-width="1" stroke-opacity="0.4"/>
<line x1="575.0661068633696" y1="228.89609978311444" x2="596.9538626454071" y2="179.78682288201162" stroke="url(#glow)" stroke-width="1" stroke-opacity="0.4"/>
<circle cx="833.1410660244314" cy="345.15698274966405" r="2.710838166100044" fill="#ffcc80" opacity="0.7"/>
<line x1="833.1410660244314" y1="345.15698274966405" x2="857.9234380279336" y2="283.36240215432264" stroke="url(#glow)" stroke-width="1" stroke-opacity="0.4"/>
<line x1="833.1410660244314" y1="345.15698274966405" x2="786.5977170814555" y2="408.6873272971934" stroke="url(#glow)" stroke-width="1" stroke-opacity="0.4"/>
<circle cx="513.2907955083581" cy="288.05311734120727" r="2.4177048977803284" fill="#ffcc80" opacity="0.7"/>
<line x1="513.2907955083581" y1="288.05311734120727" x2="522.4567934630335" y2="320.8446349313206" stroke="url(#glow)" stroke-width="1" stroke-opacity="0.4"/>
<line x1="513.2907955083581" y1="288.05311734120727" x2="556.5734993770554" y2="304.98825771674683" stroke="url(#glow)" stroke-width="1" stroke-opacity="0.4"/>
<circle cx="537.7838369859527" cy="538.062496723526" r="2.970960847564045" fill="#ffcc80" opacity="0.7"/>
<line x1="537.7838369859527" y1="538.062496723526" x2="526.018787863433" y2="498.44757657107584" stroke="url(#glow)" stroke-width="1" stroke-opacity="0.4"/>
<line x1="537.7838369859527" y1="538.062496723526" x2="527.0395887101954" y2="636.2704159713498" stroke="url(#glow)" stroke-width="1" stroke-opacity="0.4"/>
<circle cx="799.2816677958314" cy="334.40177387110225" r="2.2856754914430284" fill="#ffcc80" opacity="0.7"/>
<line x1="799.2816677958314" y1="334.40177387110225" x2="884.650994006123" y2="314.06065369553585" stroke="url(#glow)" stroke-width="1" stroke-opacity="0.4"/>
<line x1="799.2816677958314" y1="334.40177387110225" x2="935.7326428886802" y2="258.00662869079025" stroke="url(#glow)" stroke-width="1" stroke-opacity="0.4"/>
<circle cx="626.4258321923988" cy="297.0547195615467" r="4.59823638497347" fill="#ffcc80" opacity="0.7"/>
<line x1="626.4258321923988" y1="297.0547195615467" x2="626.5856864044823" y2="375.88018097274625" stroke="url(#glow)" stroke-width="1" stroke-opacity="0.4"/>
<line x1="626.4258321923988" y1="297.0547195615467" x2="666.4989378000059" y2="222.48580942271948" stroke="url(#glow)" stroke-width="1" stroke-opacity="0.4"/>
<circle cx="496.24046182830347" cy="199.41650161945165" r="3.7322765879124846" fill="#ffcc80" opacity="0.7"/>
<line x1="496.24046182830347" y1="199.41650161945165" x2="490.17300384665316" y2="250.77099828077013" stroke="url(#glow)" stroke-width="1" stroke-opacity="0.4"/>
<line x1="496.24046182830347" y1="199.41650161945165" x2="428.58398178820283" y2="220.46710304859906" stroke="url(#glow)" stroke-width="1" stroke-opacity="0.4"/>
<circle cx="622.3750215458814" cy="309.64432272210934" r="3.5468404162630973" fill="#ffcc80" opacity="0.7"/>
<line x1="622.3750215458814" y1="309.64432272210934" x2="601.6724986725948" y2="425.1523078720025" stroke="url(#glow)" stroke-width="1" stroke-opacity="0.4"/>
<line x1="622.3750215458814" y1="309.64432272210934" x2="539.0464473293108" y2="399.42451401699475" stroke="url(#glow)" stroke-width="1" stroke-opacity="0.4"/>
<circle cx="569.072943240095" cy="364.3354584118694" r="4.32240587131308" fill="#ffcc80" opacity="0.7"/>
<line x1="569.072943240095" y1="364.3354584118694" x2="560.2958242934025" y2="283.7940607492549" stroke="url(#glow)" stroke-width="1" stroke-opacity="0.4"/>
<line x1="569.072943240095" y1="364.3354584118694" x2="497.7153537204919" y2="383.3999715755726" stroke="url(#glow)" stroke-width="1" stroke-opacity="0.4"/>
<circle cx="539.8825246485424" cy="397.19149124136834" r="3.6032733931626946" fill="#ffcc80" opacity="0.7"/>
<line x1="539.8825246485424" y1="397.19149124136834" x2="550.5197320093625" y2="449.098279759863" stroke="url(#glow)" stroke-width="1" stroke-opacity="0.4"/>
<line x1="539.8825246485424" y1="397.19149124136834" x2="549.2699371119181" y2="435.6026691199227" stroke="url(#glow)" stroke-width="1" stroke-opacity="0.4"/>
<circle cx="904.123366356709" cy="448.7561387878043" r="4.557267728865249" fill="#ffcc80" opacity="0.7"/>
<line x1="904.123366356709" y1="448.7561387878043" x2="929.3807110218719" y2="345.84380725034373" stroke="url(#glow)" stroke-width="1" stroke-opacity="0.4"/>
<line x1="904.123366356709" y1="448.7561387878043" x2="905.3028993308651" y2="433.4666778158933" stroke="url(#glow)" stroke-width="1" stroke-opacity="0.4"/>
<circle cx="779.5762039258244" cy="268.5832235338431" r="2.048844057118233" fill="#ffcc80" opacity="0.7"/>
<line x1="779.5762039258244" y1="268.5832235338431" x2="806.0628677882355" y2="256.0040713358791" stroke="url(#glow)" stroke-width="1" stroke-opacity="0.4"/>
<line x1="779.5762039258244" y1="268.5832235338431" x2="630.2738011715571" y2="310.4194404310801" stroke="url(#glow)" stroke-width="1" stroke-opacity="0.4"/>
<circle cx="534.9547801050793" cy="688.9885599892962" r="4.728221642939294" fill="#ffcc80" opacity="0.7"/>
<line x1="534.9547801050793" y1="688.9885599892962" x2="566.2428321326421" y2="660.3917885189138" stroke="url(#glow)" stroke-width="1" stroke-opacity="0.4"/>
<line x1="534.9547801050793" y1="688.9885599892962" x2="607.0159185428315" y2="616.4033543048691" stroke="url(#glow)" stroke-width="1" stroke-opacity="0.4"/>
<circle cx="1098.1234619547008" cy="550.488156219461" r="2.24726159211644" fill="#ffcc80" opacity="0.7"/>
<line x1="1098.1234619547008" y1="550.488156219461" x2="1061.1056281966196" y2="488.3330229283558" stroke="url(#glow)" stroke-width="1" stroke-opacity="0.4"/>
<line x1="1098.1234619547008" y1="550.488156219461" x2="1164.5328967355815" y2="572.8934396253375" stroke="url(#glow)" stroke-width="1" stroke-opacity="0.4"/>
<circle cx="942.1753581859058" cy="223.19420050760684" r="3.28769282226604" fill="#ffcc80" opacity="0.7"/>
<line x1="942.1753581859058" y1="223.19420050760684" x2="960.9664828525468" y2="235.31897715030595" stroke="url(#glow)" stroke-width="1" stroke-opacity="0.4"/>
<line x1="942.1753581859058" y1="223.19420050760684" x2="946.764078036403" y2="242.80699290927822" stroke="url(#glow)" stroke-width="1" stroke-opacity="0.4"/>
<circle cx="828.9650613130036" cy="371.1784289709523" r="3.335200630335963" fill="#ffcc80" opacity="0.7"/>
<line x1="828.9650613130036" y1="371.1784289709523" x2="874.7835178749856" y2="373.5015161135638" stroke="url(#glow)" stroke-width="1" stroke-opacity="0.4"/>
<line x1="828.9650613130036" y1="371.1784289709523" x2="901.0325546652052" y2="439.36206921250306" stroke="url(#glow)" stroke-width="1" stroke-opacity="0.4"/>
<circle cx="921.1103108238656" cy="311.5004150482521" r="2.6868406023771296" fill="#ffcc80" opacity="0.7"/>
<line x1="921.1103108238656" y1="311.5004150482521" x2="997.7631073718791" y2="359.6950410401914" stroke="url(#glow)" stroke-width="1" stroke-opacity="0.4"/>
<line x1="921.1103108238656" y1="311.5004150482521" x2="959.2585418825679" y2="340.4067369827073" stroke="url(#glow)" stroke-width="1" stroke-opacity="0.4"/>
<circle cx="935.1251010126185" cy="612.341671270597" r="4.440103771235595" fill="#ffcc80" opacity="0.7"/>
<line x1="935.1251010126185" y1="612.341671270597" x2="985.6116692278579" y2="561.5351590812871" stroke="url(#glow)" stroke-width="1" stroke-opacity="0.4"/>
<line x1="935.1251010126185" y1="612.341671270597" x2="926.8054182181138" y2="595.4566518065501" stroke="url(#glow)" stroke-width="1" stroke-opacity="0.4"/>
<circle cx="790.1349760035253" cy="392.2472110738529" r="2.492349649371939" fill="#ffcc80" opacity="0.7"/>
<line x1="790.1349760035253" y1="392.2472110738529" x2="769.582180665976" y2="420.09626968018256" stroke="url(#glow)" stroke-width="1" stroke-opacity="0.4"/>
<line x1="790.1349760035253" y1="392.2472110738529" x2="788.912968047315" y2="279.9060472740041" stroke="url(#glow)" stroke-width="1" stroke-opacity="0.4"/>
<circle cx="859.1175163769818" cy="363.9665456156941" r="2.651734033674479" fill="#ffcc80" opacity="0.7"/>
<line x1="859.1175163769818" y1="363.9665456156941" x2="880.984554204967" y2="347.35259032513807" stroke="url(#glow)" stroke-width="1" stroke-opacity="0.4"/>
<line x1="859.1175163769818" y1="363.9665456156941" x2="916.9899092941115" y2="420.51406691269074" stroke="url(#glow)" stroke-width="1" stroke-opacity="0.4"/>
<circle cx="885.3688380780029" cy="599.6403663336579" r="4.373229983594198" fill="#ffcc80" opacity="0.7"/>
<line x1="885.3688380780029" y1="599.6403663336579" x2="886.3691482997328" y2="671.5559110432832" stroke="url(#glow)" stroke-width="1" stroke-opacity="0.4"/>
<line x1="885.3688380780029" y1="599.6403663336579" x2="886.149422321157" y2="667.4146110093676" stroke="url(#glow)" stroke-width="1" stroke-opacity="0.4"/>
<circle cx="957.8758625413393" cy="351.162042531986" r="4.823837735291036" fill="#ffcc80" opacity="0.7"/>
<line x1="957.8758625413393" y1="351.162042531986" x2="1053.3990794635097" y2="367.4159837268834" stroke="url(#glow)" stroke-width="1" stroke-opacity="0.4"/>
<line x1="957.8758625413393" y1="351.162042531986" x2="981.9779606146857" y2="327.30918662242976" stroke="url(#glow)" stroke-width="1" stroke-opacity="0.4"/>
<circle cx="904.0871355433567" cy="411.62986649232175" r="3.1752530476944605" fill="#ffcc80" opacity="0.7"/>
<line x1="904.0871355433567" y1="411.62986649232175" x2="850.9620191479972" y2="342.0919928551401" stroke="url(#glow)" stroke-width="1" stroke-opacity="0.4"/>
<line x1="904.0871355433567" y1="411.62986649232175" x2="914.132486243079" y2="376.03573758784535" stroke="url(#glow)" stroke-width="1" stroke-opacity="0.4"/>
<circle cx="896.0161665809641" cy="545.2152356206054" r="3.9142469896509446" fill="#ffcc80" opacity="0.7"/>
<line x1="896.0161665809641" y1="545.2152356206054" x2="990.5378529176704" y2="590.4300885751302" stroke="url(#glow)" stroke-width="1" stroke-opacity="0.4"/>
<line x1="896.0161665809641" y1="545.2152356206054" x2="943.2090725201747" y2="548.8002397061176" stroke="url(#glow)" stroke-width="1" stroke-opacity="0.4"/>
<circle cx="919.8218126395245" cy="607.6070746780026" r="4.516919908710876" fill="#ffcc80" opacity="0.7"/>
<line x1="919.8218126395245" y1="607.6070746780026" x2="864.5678377315672" y2="637.5939608455761" stroke="url(#glow)" stroke-width="1" stroke-opacity="0.4"/>
<line x1="919.8218126395245" y1="607.6070746780026" x2="946.1408130368781" y2="657.5198255282307" stroke="url(#glow)" stroke-width="1" stroke-opacity="0.4"/>
<circle cx="1038.2171344206467" cy="467.36898702924896" r="3.7620904907777737" fill="#ffcc80" opacity="0.7"/>
<line x1="1038.2171344206467" y1="467.36898702924896" x2="1072.9444763613376" y2="470.3862475223464" stroke="url(#glow)" stroke-width="1" stroke-opacity="0.4"/>
<line x1="1038.2171344206467" y1="467.36898702924896" x2="1145.9358175772127" y2="410.4035703472511" stroke="url(#glow)" stroke-width="1" stroke-opacity="0.4"/>
<circle cx="881.2202361826426" cy="545.7059476524764" r="4.137887228303752" fill="#ffcc80" opacity="0.7"/>
<line x1="881.2202361826426" y1="545.7059476524764" x2="886.8516640842548" y2="493.52511520029645" stroke="url(#glow)" stroke-width="1" stroke-opacity="0.4"/>
<line x1="881.2202361826426" y1="545.7059476524764" x2="822.7602340048771" y2="586.9145911014225" stroke="url(#glow)" stroke-width="1" stroke-opacity="0.4"/>
<circle cx="896.0603064549388" cy="451.76118228805916" r="2.250791221333449" fill="#ffcc80" opacity="0.7"/>
<line x1="896.0603064549388" y1="451.76118228805916" x2="995.0953789335232" y2="505.41598671566834" stroke="url(#glow)" stroke-width="1" stroke-opacity="0.4"/>
<line x1="896.0603064549388" y1="451.76118228805916" x2="924.7399622353008" y2="447.09185189794425" stroke="url(#glow)" stroke-width="1" stroke-opacity="0.4"/>
<circle cx="887.5582620391701" cy="648.5986597893856" r="4.289672393378462" fill="#ffcc80" opacity="0.7"/>
<line x1="887.5582620391701" y1="648.5986597893856" x2="845.3089410971274" y2="590.5705831957989" stroke="url(#glow)" stroke-width="1" stroke-opacity="0.4"/>
<line x1="887.5582620391701" y1="648.5986597893856" x2="867.7608619026952" y2="698.4460229304841" stroke="url(#glow)" stroke-width="1" stroke-opacity="0.4"/>
<circle cx="1086.0572225684311" cy="440.0482414351313" r="2.7334392611580967" fill="#ffcc80" opacity="0.7"/>
<line x1="1086.0572225684311" y1="440.0482414351313" x2="1108.1524508310094" y2="428.72498774722055" stroke="url(#glow)" stroke-width="1" stroke-opacity="0.4"/>
<line x1="1086.0572225684311" y1="440.0482414351313" x2="1073.2512032591394" y2="429.13911424284606" stroke="url(#glow)" stroke-width="1" stroke-opacity="0.4"/>
<circle cx="869.4245053622572" cy="282.0988297875661" r="2.526937710928388" fill="#ffcc80" opacity="0.7"/>
<line x1="869.4245053622572" y1="282.0988297875661" x2="896.5034118679566" y2="284.258230674267" stroke="url(#glow)" stroke-width="1" stroke-opacity="0.4"/>
<line x1="869.4245053622572" y1="282.0988297875661" x2="927.8417720261043" y2="286.2721069141438" stroke="url(#glow)" stroke-width="1" stroke-opacity="0.4"/>
<circle cx="876.6523067672601" cy="620.6211928121522" r="4.467520618157808" fill="#ffcc80" opacity="0.7"/>
<line x1="876.6523067672601" y1="620.6211928121522" x2="873.8523623859168" y2="668.758459239741" stroke="url(#glow)" stroke-width="1" stroke-opacity="0.4"/>
<line x1="876.6523067672601" y1="620.6211928121522" x2="876.5094639587347" y2="518.9552402970883" stroke="url(#glow)" stroke-width="1" stroke-opacity="0.4"/>
<circle cx="971.9539796907007" cy="397.2437255069153" r="4.699692279756581" fill="#ffcc80" opacity="0.7"/>
<line x1="971.9539796907007" y1="397.2437255069153" x2="944.9924128058798" y2="442.8260376374043" stroke="url(#glow)" stroke-width="1" stroke-opacity="0.4"/>
<line x1="971.9539796907007" y1="397.2437255069153" x2="933.3342663694476" y2="391.4116498296289" stroke="url(#glow)" stroke-width="1" stroke-opacity="0.4"/>
<circle cx="1188.2284038333178" cy="439.0877035956936" r="3.488442706805418" fill="#ffcc80" opacity="0.7"/>
<line x1="1188.2284038333178" y1="439.0877035956936" x2="1171.3799952196046" y2="437.94456651946837" stroke="url(#glow)" stroke-width="1" stroke-opacity="0.4"/>
<line x1="1188.2284038333178" y1="439.0877035956936" x2="1207.3938396401618" y2="415.7299987373237" stroke="url(#glow)" stroke-width="1" stroke-opacity="0.4"/>
<circle cx="1122.1475289210557" cy="687.8369177941094" r="4.6828052604327866" fill="#ffcc80" opacity="0.7"/>
<line x1="1122.1475289210557" y1="687.8369177941094" x2="1110.7880732252352" y2="665.8440540147197" stroke="url(#glow)" stroke-width="1" stroke-opacity="0.4"/>
<line x1="1122.1475289210557" y1="687.8369177941094" x2="1121.9399065809641" y2="684.2569814146827" stroke="url(#glow)" stroke-width="1" stroke-opacity="0.4"/>
<circle cx="994.8852726121922" cy="453.7019819790842" r="2.137944589669211" fill="#ffcc80" opacity="0.7"/>
<line x1="994.8852726121922" y1="453.7019819790842" x2="921.0710945101733" y2="538.5211395868656" stroke="url(#glow)" stroke-width="1" stroke-opacity="0.4"/>
<line x1="994.8852726121922" y1="453.7019819790842" x2="1049.7224687013245" y2="568.2891242995757" stroke="url(#glow)" stroke-width="1" stroke-opacity="0.4"/>
<circle cx="1243.7795957313892" cy="531.5947357359339" r="4.142062404915672" fill="#ffcc80" opacity="0.7"/>
<line x1="1243.7795957313892" y1="531.5947357359339" x2="1223.8685803702053" y2="502.0162522519505" stroke="url(#glow)" stroke-width="1" stroke-opacity="0.4"/>
<line x1="1243.7795957313892" y1="531.5947357359339" x2="1244.993589155825" y2="642.8358303817632" stroke="url(#glow)" stroke-width="1" stroke-opacity="0.4"/>
<circle cx="860.6644137991412" cy="725.8695333238552" r="3.7146078878523743" fill="#ffcc80" opacity="0.7"/>
<line x1="860.6644137991412" y1="725.8695333238552" x2="915.3783270501149" y2="776.8631221092534" stroke="url(#glow)" stroke-width="1" stroke-opacity="0.4"/>
<line x1="860.6644137991412" y1="725.8695333238552" x2="894.2714787958295" y2="737.4164305533457" stroke="url(#glow)" stroke-width="1" stroke-opacity="0.4"/>
<circle cx="934.2284039715043" cy="467.4485825146316" r="3.2027745411305073" fill="#ffcc80" opacity="0.7"/>
<line x1="934.2284039715043" y1="467.4485825146316" x2="1005.9997455016271" y2="397.4510490876535" stroke="url(#glow)" stroke-width="1" stroke-opacity="0.4"/>
<line x1="934.2284039715043" y1="467.4485825146316" x2="940.5813163153528" y2="424.78691583647185" stroke="url(#glow)" stroke-width="1" stroke-opacity="0.4"/>
<circle cx="1121.8892657973715" cy="557.5889839922127" r="3.1067580774576475" fill="#ffcc80" opacity="0.7"/>
<line x1="1121.8892657973715" y1="557.5889839922127" x2="1099.2542139028901" y2="642.2163656732776" stroke="url(#glow)" stroke-width="1" stroke-opacity="0.4"/>
<line x1="1121.8892657973715" y1="557.5889839922127" x2="1119.4498337685532" y2="520.3967492784404" stroke="url(#glow)" stroke-width="1" stroke-opacity="0.4"/>
<circle cx="1670.3267973293805" cy="509.7379688977227" r="4.327657867865765" fill="#ffcc80" opacity="0.7"/>
<line x1="1670.3267973293805" y1="509.7379688977227" x2="1663.411817696347" y2="447.23487843431417" stroke="url(#glow)" stroke-width="1" stroke-opacity="0.4"/>
<line x1="1670.3267973293805" y1="509.7379688977227" x2="1678.4636618581737" y2="482.35697509194" stroke="url(#glow)" stroke-width="1" stroke-opacity="0.4"/>
<circle cx="1184.0680222141348" cy="588.4004555969475" r="3.6246355998461772" fill="#ffcc80" opacity="0.7"/>
<line x1="1184.0680222141348" y1="588.4004555969475" x2="1133.5620554860539" y2="530.4246364273183" stroke="url(#glow)" stroke-width="1" stroke-opacity="0.4"/>
<line x1="1184.0680222141348" y1="588.4004555969475" x2="1229.1520179758768" y2="591.1216883184519" stroke="url(#glow)" stroke-width="1" stroke-opacity="0.4"/>
<circle cx="1162.172603868568" cy="456.4828072207455" r="4.21424798057709" fill="#ffcc80" opacity="0.7"/>
<line x1="1162.172603868568" y1="456.4828072207455" x2="1150.1924935186391" y2="488.1808418320074" stroke="url(#glow)" stroke-width="1" stroke-opacity="0.4"/>
<line x1="1162.172603868568" y1="456.4828072207455" x2="1214.0525440768745" y2="450.9582833286715" stroke="url(#glow)" stroke-width="1" stroke-opacity="0.4"/>
<circle cx="1544.3497546122594" cy="504.8675000410997" r="2.4271204556149053" fill="#ffcc80" opacity="0.7"/>
<line x1="1544.3497546122594" y1="504.8675000410997" x2="1541.5585356485508" y2="519.5873618157917" stroke="url(#glow)" stroke-width="1" stroke-opacity="0.4"/>
<line x1="1544.3497546122594" y1="504.8675000410997" x2="1555.5735370332477" y2="600.8465065918048" stroke="url(#glow)" stroke-width="1" stroke-opacity="0.4"/>
<circle cx="881.5493819175776" cy="767.6496462705459" r="3.375374085632446" fill="#ffcc80" opacity="0.7"/>
<line x1="881.5493819175776" y1="767.6496462705459" x2="880.6792402526002" y2="701.7259915309633" stroke="url(#glow)" stroke-width="1" stroke-opacity="0.4"/>
<line x1="881.5493819175776" y1="767.6496462705459" x2="810.3887200781719" y2="765.2218669504335" stroke="url(#glow)" stroke-width="1" stroke-opacity="0.4"/>
<circle cx="995.8205496013566" cy="725.7324975707229" r="2.1868485905598742" fill="#ffcc80" opacity="0.7"/>
<line x1="995.8205496013566" y1="725.7324975707229" x2="981.9848105460491" y2="703.1724680699908" stroke="url(#glow)" stroke-width="1" stroke-opacity="0.4"/>
<line x1="995.8205496013566" y1="725.7324975707229" x2="970.5670162325433" y2="819.9578072114884" stroke="url(#glow)" stroke-width="1" stroke-opacity="0.4"/>
<circle cx="1287.9797103030814" cy="534.8351239572395" r="4.495699504062969" fill="#ffcc80" opacity="0.7"/>
<line x1="1287.9797103030814" y1="534.8351239572395" x2="1262.6704377355948" y2="583.5563737248641" stroke="url(#glow)" stroke-width="1" stroke-opacity="0.4"/>
<line x1="1287.9797103030814" y1="534.8351239572395" x2="1300.3029077840838" y2="654.0850875767043" stroke="url(#glow)" stroke-width="1" stroke-opacity="0.4"/>
<circle cx="1322.7531391883906" cy="796.1300913488603" r="2.326918501155314" fill="#ffcc80" opacity="0.7"/>
<line x1="1322.7531391883906" y1="796.1300913488603" x2="1365.786407199671" y2="829.795886180245" stroke="url(#glow)" stroke-width="1" stroke-opacity="0.4"/>
<line x1="1322.7531391883906" y1="796.1300913488603" x2="1312.8212851701235" y2="819.4691764346759" stroke="url(#glow)" stroke-width="1" stroke-opacity="0.4"/>
<circle cx="992.1358908236581" cy="802.0034067488967" r="3.3557512307533854" fill="#ffcc80" opacity="0.7"/>
<line x1="992.1358908236581" y1="802.0034067488967" x2="896.8971517986071" y2="824.3330790595227" stroke="url(#glow)" stroke-width="1" stroke-opacity="0.4"/>
<line x1="992.1358908236581" y1="802.0034067488967" x2="1068.6541705269717" y2="850.8477118002564" stroke="url(#glow)" stroke-width="1" stroke-opacity="0.4"/>
<circle cx="1075.726571286791" cy="822.8242728627771" r="3.8099074596240325" fill="#ffcc80" opacity="0.7"/>
<line x1="1075.726571286791" y1="822.8242728627771" x2="1097.209317028524" y2="918.9915568540873" stroke="url(#glow)" stroke-width="1" stroke-opacity="0.4"/>
<line x1="1075.726571286791" y1="822.8242728627771" x2="1122.7126050101751" y2="886.0831021662125" stroke="url(#glow)" stroke-width="1" stroke-opacity="0.4"/>
<circle cx="1301.7259151010574" cy="572.277624243365" r="2.146851852771268" fill="#ffcc80" opacity="0.7"/>
<line x1="1301.7259151010574" y1="572.277624243365" x2="1273.7503746341185" y2="660.5604154545292" stroke="url(#glow)" stroke-width="1" stroke-opacity="0.4"/>
<line x1="1301.7259151010574" y1="572.277624243365" x2="1358.4643452795854" y2="681.7015486497017" stroke="url(#glow)" stroke-width="1" stroke-opacity="0.4"/>
<circle cx="1270.768663490142" cy="450.68154314189366" r="3.6503626760062415" fill="#ffcc80" opacity="0.7"/>
<line x1="1270.768663490142" y1="450.68154314189366" x2="1289.964599435293" y2="463.6787061843695" stroke="url(#glow)" stroke-width="1" stroke-opacity="0.4"/>
<line x1="1270.768663490142" y1="450.68154314189366" x2="1277.6845661499406" y2="426.1947894363407" stroke="url(#glow)" stroke-width="1" stroke-opacity="0.4"/>
<circle cx="1396.025577305284" cy="700.7732750980523" r="2.6668643980633147" fill="#ffcc80" opacity="0.7"/>
<line x1="1396.025577305284" y1="700.7732750980523" x2="1412.2208902215234" y2="748.697076330184" stroke="url(#glow)" stroke-width="1" stroke-opacity="0.4"/>
<line x1="1396.025577305284" y1="700.7732750980523" x2="1350.1292018570107" y2="592.3183915374012" stroke="url(#glow)" stroke-width="1" stroke-opacity="0.4"/>
<circle cx="1326.1061689181322" cy="702.3862293947119" r="4.75228574453474" fill="#ffcc80" opacity="0.7"/>
<line x1="1326.1061689181322" y1="702.3862293947119" x2="1478.6861237463318" y2="780.1141197711836" stroke="url(#glow)" stroke-width="1" stroke-opacity="0.4"/>
<line x1="1326.1061689181322" y1="702.3862293947119" x2="1349.3391950154523" y2="770.5942438830891" stroke="url(#glow)" stroke-width="1" stroke-opacity="0.4"/>
<circle cx="1177.9867445365494" cy="540.627628697735" r="4.541826303959403" fill="#ffcc80" opacity="0.7"/>
<line x1="1177.9867445365494" y1="540.627628697735" x2="1187.231283553107" y2="516.7930378333521" stroke="url(#glow)" stroke-width="1" stroke-opacity="0.4"/>
<line x1="1177.9867445365494" y1="540.627628697735" x2="1193.057351336404" y2="534.9091734673681" stroke="url(#glow)" stroke-width="1" stroke-opacity="0.4"/>
<circle cx="1296.010490532653" cy="528.6634329352504" r="4.173292541392119" fill="#ffcc80" opacity="0.7"/>
<line x1="1296.010490532653" y1="528.6634329352504" x2="1246.9104849346427" y2="529.8586944412897" stroke="url(#glow)" stroke-width="1" stroke-opacity="0.4"/>
<line x1="1296.010490532653" y1="528.6634329352504" x2="1254.148027596867" y2="549.445008223031" stroke="url(#glow)" stroke-width="1" stroke-opacity="0.4"/>
<circle cx="1254.8732545342452" cy="536.4659016860176" r="3.338034291939969" fill="#ffcc80" opacity="0.7"/>
<line x1="1254.8732545342452" y1="536.4659016860176" x2="1295.9088244850345" y2="591.9370859007668" stroke="url(#glow)" stroke-width="1" stroke-opacity="0.4"/>
<line x1="1254.8732545342452" y1="536.4659016860176" x2="1201.3251855359922" y2="488.06150806196376" stroke="url(#glow)" stroke-width="1" stroke-opacity="0.4"/>
<circle cx="843.4176459848134" cy="604.1629987434374" r="3.4370927898804635" fill="#ffcc80" opacity="0.7"/>
<line x1="843.4176459848134" y1="604.1629987434374" x2="885.2790019013373" y2="629.8958950142714" stroke="url(#glow)" stroke-width="1" stroke-opacity="0.4"/>
<line x1="843.4176459848134" y1="604.1629987434374" x2="780.7267856155809" y2="639.0211296645414" stroke="url(#glow)" stroke-width="1" stroke-opacity="0.4"/>
<circle cx="1187.1835082427822" cy="493.40238317486836" r="4.982261832106889" fill="#ffcc80" opacity="0.7"/>
<line x1="1187.1835082427822" y1="493.40238317486836" x2="1177.6242077373654" y2="490.71243130934386" stroke="url(#glow)" stroke-width="1" stroke-opacity="0.4"/>
<line x1="1187.1835082427822" y1="493.40238317486836" x2="1128.721341709904" y2="546.6001483058196" stroke="url(#glow)" stroke-width="1" stroke-opacity="0.4"/>
<circle cx="894.5364757008546" cy="635.3006533230624" r="3.0321023593696284" fill="#ffcc80" opacity="0.7"/>
<line x1="894.5364757008546" y1="635.3006533230624" x2="854.1841942562714" y2="617.6423147353232" stroke="url(#glow)" stroke-width="1" stroke-opacity="0.4"/>
<line x1="894.5364757008546" y1="635.3006533230624" x2="893.0650682420169" y2="646.6970602306774" stroke="url(#glow)" stroke-width="1" stroke-opacity="0.4"/>
<circle cx="1124.0184902096871" cy="581.0364288002643" r="4.432068097111693" fill="#ffcc80" opacity="0.7"/>
<line x1="1124.0184902096871" y1="581.0364288002643" x2="1106.4566839193144" y2="670.2549233776696" stroke="url(#glow)" stroke-width="1" stroke-opacity="0.4"/>
<line x1="1124.0184902096871" y1="581.0364288002643" x2="1077.7350378840358" y2="589.3588168670988" stroke="url(#glow)" stroke-width="1" stroke-opacity="0.4"/>
<circle cx="1059.6617171059" cy="547.0144014498087" r="2.478874424847983" fill="#ffcc80" opacity="0.7"/>
<line x1="1059.6617171059" y1="547.0144014498087" x2="1060.1618460362367" y2="584.1563458794101" stroke="url(#glow)" stroke-width="1" stroke-opacity="0.4"/>
<line x1="1059.6617171059" y1="547.0144014498087" x2="973.1341101423916" y2="528.4198720977258" stroke="url(#glow)" stroke-width="1" stroke-opacity="0.4"/>
<circle cx="1133.2966326147514" cy="347.918499053485" r="4.843407434658965" fill="#ffcc80" opacity="0.7"/>
<line x1="1133.2966326147514" y1="347.918499053485" x2="1006.708146199083" y2="282.7234950453311" stroke="url(#glow)" stroke-width="1" stroke-opacity="0.4"/>
<line x1="1133.2966326147514" y1="347.918499053485" x2="1043.9107223626481" y2="423.3696281858552" stroke="url(#glow)" stroke-width="1" stroke-opacity="0.4"/>
<circle cx="1246.5327477453425" cy="597.0778347598737" r="2.7096533982273825" fill="#ffcc80" opacity="0.7"/>
<line x1="1246.5327477453425" y1="597.0778347598737" x2="1212.6149794873481" y2="671.5670623131878" stroke="url(#glow)" stroke-width="1" stroke-opacity="0.4"/>
<line x1="1246.5327477453425" y1="597.0778347598737" x2="1204.2775000443496" y2="648.9582342807754" stroke="url(#glow)" stroke-width="1" stroke-opacity="0.4"/>
<circle cx="1113.7374352769973" cy="468.28102419615567" r="3.702954096278693" fill="#ffcc80" opacity="0.7"/>
<line x1="1113.7374352769973" y1="468.28102419615567" x2="1190.085189366446" y2="563.092087206564" stroke="url(#glow)" stroke-width="1" stroke-opacity="0.4"/>
<line x1="1113.7374352769973" y1="468.28102419615567" x2="1160.9871503532358" y2="390.29584262982286" stroke="url(#glow)" stroke-width="1" stroke-opacity="0.4"/>
<circle cx="1338.253073225523" cy="567.3168131632441" r="2.526670302981952" fill="#ffcc80" opacity="0.7"/>
<line x1="1338.253073225523" y1="567.3168131632441" x2="1354.7727384703467" y2="571.3337785829804" stroke="url(#glow)" stroke-width="1" stroke-opacity="0.4"/>
<line x1="1338.253073225523" y1="567.3168131632441" x2="1330.1988573219253" y2="561.335529209481" stroke="url(#glow)" stroke-width="1" stroke-opacity="0.4"/>
<circle cx="1020.6081409028736" cy="620.5665194387661" r="3.842404302987405" fill="#ffcc80" opacity="0.7"/>
<line x1="1020.6081409028736" y1="620.5665194387661" x2="1036.458707654491" y2="577.7635943285791" stroke="url(#glow)" stroke-width="1" stroke-opacity="0.4"/>
<line x1="1020.6081409028736" y1="620.5665194387661" x2="1060.2430186477266" y2="701.4197661880714" stroke="url(#glow)" stroke-width="1" stroke-opacity="0.4"/>
<circle cx="1189.5521153377363" cy="563.2806484608151" r="2.443136056958344" fill="#ffcc80" opacity="0.7"/>
<line x1="1189.5521153377363" y1="563.2806484608151" x2="1181.791379725422" y2="536.7570139192032" stroke="url(#glow)" stroke-width="1" stroke-opacity="0.4"/>
<line x1="1189.5521153377363" y1="563.2806484608151" x2="1236.420982588856" y2="602.5127854213538" stroke="url(#glow)" stroke-width="1" stroke-opacity="0.4"/>
<circle cx="1115.5355982749513" cy="645.6902171687348" r="4.113614028884244" fill="#ffcc80" opacity="0.7"/>
<line x1="1115.5355982749513" y1="645.6902171687348" x2="1080.7108468479835" y2="589.1492190884229" stroke="url(#glow)" stroke-width="1" stroke-opacity="0.4"/>
<line x1="1115.5355982749513" y1="645.6902171687348" x2="1092.6999196844329" y2="683.4529253390771" stroke="url(#glow)" stroke-width="1" stroke-opacity="0.4"/>
<circle cx="1394.748162798932" cy="565.2026748072979" r="3.310605148788747" fill="#ffcc80" opacity="0.7"/>
<line x1="1394.748162798932" y1="565.2026748072979" x2="1357.7083330935734" y2="520.8473135890524" stroke="url(#glow)" stroke-width="1" stroke-opacity="0.4"/>
<line x1="1394.748162798932" y1="565.2026748072979" x2="1362.5971718654473" y2="636.6683982656157" stroke="url(#glow)" stroke-width="1" stroke-opacity="0.4"/>
<circle cx="990.6437759100572" cy="176.5547213206257" r="3.135152324441594" fill="#ffcc80" opacity="0.7"/>
<line x1="990.6437759100572" y1="176.5547213206257" x2="986.4507967751798" y2="135.000132838073" stroke="url(#glow)" stroke-width="1" stroke-opacity="0.4"/>
<line x1="990.6437759100572" y1="176.5547213206257" x2="991.9598927586298" y2="179.25017317058533" stroke="url(#glow)" stroke-width="1" stroke-opacity="0.4"/>
<circle cx="1071.8957219508586" cy="227.1840676225715" r="4.552270896605025" fill="#ffcc80" opacity="0.7"/>
<line x1="1071.8957219508586" y1="227.1840676225715" x2="1080.3441946450832" y2="163.00238246218947" stroke="url(#glow)" stroke-width="1" stroke-opacity="0.4"/>
<line x1="1071.8957219508586" y1="227.1840676225715" x2="1090.0096657015263" y2="267.0225372636381" stroke="url(#glow)" stroke-width="1" stroke-opacity="0.4"/>
<circle cx="1204.4798730108203" cy="221.68572750236163" r="3.918940318350872" fill="#ffcc80" opacity="0.7"/>
<line x1="1204.4798730108203" y1="221.68572750236163" x2="1250.940830817879" y2="257.31030726594565" stroke="url(#glow)" stroke-width="1" stroke-opacity="0.4"/>
<line x1="1204.4798730108203" y1="221.68572750236163" x2="1194.655539374774" y2="239.24944741945407" stroke="url(#glow)" stroke-width="1" stroke-opacity="0.4"/>
<circle cx="1054.787143713076" cy="522.0092451486686" r="3.908560310721105" fill="#ffcc80" opacity="0.7"/>
<line x1="1054.787143713076" y1="522.0092451486686" x2="1145.146076047153" y2="500.66372672741664" stroke="url(#glow)" stroke-width="1" stroke-opacity="0.4"/>
<line x1="1054.787143713076" y1="522.0092451486686" x2="1015.8580136249947" y2="451.1715173207684" stroke="url(#glow)" stroke-width="1" stroke-opacity="0.4"/>
<circle cx="1118.3477138851013" cy="433.4928546974502" r="2.6290528532014976" fill="#ffcc80" opacity="0.7"/>
<line x1="1118.3477138851013" y1="433.4928546974502" x2="1102.1134773381004" y2="389.9719774066554" stroke="url(#glow)" stroke-width="1" stroke-opacity="0.4"/>
<line x1="1118.3477138851013" y1="433.4928546974502" x2="1136.7485864244431" y2="355.81642823008895" stroke="url(#glow)" stroke-width="1" stroke-opacity="0.4"/>
<circle cx="1283.7719051223517" cy="461.99204029569955" r="3.258959687555622" fill="#ffcc80" opacity="0.7"/>
<line x1="1283.7719051223517" y1="461.99204029569955" x2="1309.7115215528925" y2="506.7075550694014" stroke="url(#glow)" stroke-width="1" stroke-opacity="0.4"/>
<line x1="1283.7719051223517" y1="461.99204029569955" x2="1318.0300376916916" y2="430.5313593299235" stroke="url(#glow)" stroke-width="1" stroke-opacity="0.4"/>
<circle cx="930.2873853387754" cy="612.842229736179" r="4.366189983428658" fill="#ffcc80" opacity="0.7"/>
<line x1="930.2873853387754" y1="612.842229736179" x2="855.9626333106563" y2="573.1565468581614" stroke="url(#glow)" stroke-width="1" stroke-opacity="0.4"/>
<line x1="930.2873853387754" y1="612.842229736179" x2="938.6587825336061" y2="666.9792987610003" stroke="url(#glow)" stroke-width="1" stroke-opacity="0.4"/>
<circle cx="1141.896006149119" cy="376.74743366351885" r="2.06023399499171" fill="#ffcc80" opacity="0.7"/>
<line x1="1141.896006149119" y1="376.74743366351885" x2="1140.2529884708665" y2="400.2085182597911" stroke="url(#glow)" stroke-width="1" stroke-opacity="0.4"/>
<line x1="1141.896006149119" y1="376.74743366351885" x2="1084.8434169120715" y2="464.4299098842043" stroke="url(#glow)" stroke-width="1" stroke-opacity="0.4"/>
<circle cx="1161.4531711267934" cy="464.1904888687729" r="4.825502430605683" fill="#ffcc80" opacity="0.7"/>
<line x1="1161.4531711267934" y1="464.1904888687729" x2="1206.43173497596" y2="457.94515521349365" stroke="url(#glow)" stroke-width="1" stroke-opacity="0.4"/>
<line x1="1161.4531711267934" y1="464.1904888687729" x2="1266.7610752150813" y2="454.42025037951595" stroke="url(#glow)" stroke-width="1" stroke-opacity="0.4"/>
<circle cx="1085.0600590137542" cy="261.0936618952362" r="3.9609055257960524" fill="#ffcc80" opacity="0.7"/>
<line x1="1085.0600590137542" y1="261.0936618952362" x2="1043.3759895476494" y2="227.77677646699132" stroke="url(#glow)" stroke-width="1" stroke-opacity="0.4"/>
<line x1="1085.0600590137542" y1="261.0936618952362" x2="1127.3845882218193" y2="275.8989732160235" stroke="url(#glow)" stroke-width="1" stroke-opacity="0.4"/>
<circle cx="1281.9239608670255" cy="389.34860029440256" r="3.6623372969486883" fill="#ffcc80" opacity="0.7"/>
<line x1="1281.9239608670255" y1="389.34860029440256" x2="1337.5547067294997" y2="361.25540476194504" stroke="url(#glow)" stroke-width="1" stroke-opacity="0.4"/>
<line x1="1281.9239608670255" y1="389.34860029440256" x2="1259.547271677719" y2="353.7940494484638" stroke="url(#glow)" stroke-width="1" stroke-opacity="0.4"/>
<circle cx="1253.4592775825154" cy="498.9455707543869" r="3.6489879006114863" fill="#ffcc80" opacity="0.7"/>
<line x1="1253.4592775825154" y1="498.9455707543869" x2="1236.7461945601685" y2="499.89713115402014" stroke="url(#glow)" stroke-width="1" stroke-opacity="0.4"/>
<line x1="1253.4592775825154" y1="498.9455707543869" x2="1274.8666562333372" y2="499.4588884623443" stroke="url(#glow)" stroke-width="1" stroke-opacity="0.4"/>
<circle cx="1224.0907515169322" cy="226.12993151262992" r="3.440985192351225" fill="#ffcc80" opacity="0.7"/>
<line x1="1224.0907515169322" y1="226.12993151262992" x2="1252.0112599234744" y2="245.6186219553945" stroke="url(#glow)" stroke-width="1" stroke-opacity="0.4"/>
<line x1="1224.0907515169322" y1="226.12993151262992" x2="1135.3223360828924" y2="121.27750138727708" stroke="url(#glow)" stroke-width="1" stroke-opacity="0.4"/>
<circle cx="1056.7026000385827" cy="426.2849342478796" r="4.354629719200745" fill="#ffcc80" opacity="0.7"/>
<line x1="1056.7026000385827" y1="426.2849342478796" x2="952.3382847450928" y2="445.5523579197025" stroke="url(#glow)" stroke-width="1" stroke-opacity="0.4"/>
<line x1="1056.7026000385827" y1="426.2849342478796" x2="1049.9574249848067" y2="497.62039709023026" stroke="url(#glow)" stroke-width="1" stroke-opacity="0.4"/>
<circle cx="1020.1466746594381" cy="507.79123801873754" r="3.1443355613068116" fill="#ffcc80" opacity="0.7"/>
<line x1="1020.1466746594381" y1="507.79123801873754" x2="1026.0081083839439" y2="521.7145299963476" stroke="url(#glow)" stroke-width="1" stroke-opacity="0.4"/>
<line x1="1020.1466746594381" y1="507.79123801873754" x2="983.8189458796863" y2="522.2429850586952" stroke="url(#glow)" stroke-width="1" stroke-opacity="0.4"/>
<circle cx="1230.5834532050199" cy="248.88333417824643" r="2.4533920232706175" fill="#ffcc80" opacity="0.7"/>
<line x1="1230.5834532050199" y1="248.88333417824643" x2="1223.1412200847217" y2="227.59647324495563" stroke="url(#glow)" stroke-width="1" stroke-opacity="0.4"/>
<line x1="1230.5834532050199" y1="248.88333417824643" x2="1185.8831684929064" y2="169.77658425778353" stroke="url(#glow)" stroke-width="1" stroke-opacity="0.4"/>
<circle cx="913.8176108895799" cy="543.7148134698407" r="2.6825382758737035" fill="#ffcc80" opacity="0.7"/>
<line x1="913.8176108895799" y1="543.7148134698407" x2="959.7052386292225" y2="562.2119159755919" stroke="url(#glow)" stroke-width="1" stroke-opacity="0.4"/>
<line x1="913.8176108895799" y1="543.7148134698407" x2="785.3049213670763" y2="525.3569654774518" stroke="url(#glow)" stroke-width="1" stroke-opacity="0.4"/>
<circle cx="994.3856627175664" cy="89.0956216691032" r="3.718142871893656" fill="#ffcc80" opacity="0.7"/>
<line x1="994.3856627175664" y1="89.0956216691032" x2="998.1814813212959" y2="131.05719903252918" stroke="url(#glow)" stroke-width="1" stroke-opacity="0.4"/>
<line x1="994.3856627175664" y1="89.0956216691032" x2="916.9652490740546" y2="149.3016210446023" stroke="url(#glow)" stroke-width="1" stroke-opacity="0.4"/>
<circle cx="1320.5799736450886" cy="456.2584417241442" r="3.550452190647654" fill="#ffcc80" opacity="0.7"/>
<line x1="1320.5799736450886" y1="456.2584417241442" x2="1192.2302860348805" y2="394.3920173842363" stroke="url(#glow)" stroke-width="1" stroke-opacity="0.4"/>
<line x1="1320.5799736450886" y1="456.2584417241442" x2="1393.914249432008" y2="553.8636508570487" stroke="url(#glow)" stroke-width="1" stroke-opacity="0.4"/>
<circle cx="782.5824376930676" cy="529.2048347068456" r="2.5014943623281614" fill="#ffcc80" opacity="0.7"/>
<line x1="782.5824376930676" y1="529.2048347068456" x2="790.342126856504" y2="560.9892403281384" stroke="url(#glow)" stroke-width="1" stroke-opacity="0.4"/>
<line x1="782.5824376930676" y1="529.2048347068456" x2="802.0608134470525" y2="534.5566612905924" stroke="url(#glow)" stroke-width="1" stroke-opacity="0.4"/>
<circle cx="1088.9031617388282" cy="322.01848608102057" r="4.46769209863006" fill="#ffcc80" opacity="0.7"/>
<line x1="1088.9031617388282" y1="322.01848608102057" x2="1129.1417774897805" y2="375.8774057263734" stroke="url(#glow)" stroke-width="1" stroke-opacity="0.4"/>
<line x1="1088.9031617388282" y1="322.01848608102057" x2="1054.7082290208234" y2="394.9843066167085" stroke="url(#glow)" stroke-width="1" stroke-opacity="0.4"/>
<circle cx="1152.5669482945896" cy="354.1004315539584" r="3.669092611909397" fill="#ffcc80" opacity="0.7"/>
<line x1="1152.5669482945896" y1="354.1004315539584" x2="1059.244416710753" y2="322.4407562124905" stroke="url(#glow)" stroke-width="1" stroke-opacity="0.4"/>
<line x1="1152.5669482945896" y1="354.1004315539584" x2="1041.820749419012" y2="340.3303197910896" stroke="url(#glow)" stroke-width="1" stroke-opacity="0.4"/>
<circle cx="1362.1938048475254" cy="432.074123024755" r="3.7627282631969896" fill="#ffcc80" opacity="0.7"/>
<line x1="1362.1938048475254" y1="432.074123024755" x2="1367.025492600503" y2="408.12637285095917" stroke="url(#glow)" stroke-width="1" stroke-opacity="0.4"/>
<line x1="1362.1938048475254" y1="432.074123024755" x2="1400.3151187915735" y2="484.2964009471821" stroke="url(#glow)" stroke-width="1" stroke-opacity="0.4"/>
<circle cx="793.0750062414388" cy="221.32420731312203" r="2.300611993482593" fill="#ffcc80" opacity="0.7"/>
<line x1="793.0750062414388" y1="221.32420731312203" x2="861.5658678548791" y2="274.89008670727225" stroke="url(#glow)" stroke-width="1" stroke-opacity="0.4"/>
<line x1="793.0750062414388" y1="221.32420731312203" x2="815.4628411972943" y2="123.32566238014338" stroke="url(#glow)" stroke-width="1" stroke-opacity="0.4"/>
<circle cx="1354.4234045740845" cy="203.61242081548687" r="2.7924098905111134" fill="#ffcc80" opacity="0.7"/>
<line x1="1354.4234045740845" y1="203.61242081548687" x2="1317.7365318933932" y2="149.7839405261697" stroke="url(#glow)" stroke-width="1" stroke-opacity="0.4"/>
<line x1="1354.4234045740845" y1="203.61242081548687" x2="1324.1236638103167" y2="208.79340199900926" stroke="url(#glow)" stroke-width="1" stroke-opacity="0.4"/>
<circle cx="959.331799598302" cy="533.1899147261629" r="4.042438589639841" fill="#ffcc80" opacity="0.7"/>
<line x1="959.331799598302" y1="533.1899147261629" x2="918.4095635104412" y2="562.251239535045" stroke="url(#glow)" stroke-width="1" stroke-opacity="0.4"/>
<line x1="959.331799598302" y1="533.1899147261629" x2="1014.8103223876333" y2="480.4041055707396" stroke="url(#glow)" stroke-width="1" stroke-opacity="0.4"/>
<circle cx="1292.2332183678532" cy="465.9148782316794" r="2.805753064834282" fill="#ffcc80" opacity="0.7"/>
<line x1="1292.2332183678532" y1="465.9148782316794" x2="1260.6488040486252" y2="498.53177600024657" stroke="url(#glow)" stroke-width="1" stroke-opacity="0.4"/>
<line x1="1292.2332183678532" y1="465.9148782316794" x2="1303.921192561695" y2="424.37461616608476" stroke="url(#glow)" stroke-width="1" stroke-opacity="0.4"/>
<circle cx="1293.323570867938" cy="166.53960746099906" r="4.054556081404181" fill="#ffcc80" opacity="0.7"/>
<line x1="1293.323570867938" y1="166.53960746099906" x2="1328.7542204029219" y2="160.35519905906804" stroke="url(#glow)" stroke-width="1" stroke-opacity="0.4"/>
<line x1="1293.323570867938" y1="166.53960746099906" x2="1267.590576224213" y2="244.93161883100197" stroke="url(#glow)" stroke-width="1" stroke-opacity="0.4"/>
<circle cx="1149.8484531494928" cy="283.54560449633505" r="4.186398239808665" fill="#ffcc80" opacity="0.7"/>
<line x1="1149.8484531494928" y1="283.54560449633505" x2="1132.7596882209125" y2="270.2937880083586" stroke="url(#glow)" stroke-width="1" stroke-opacity="0.4"/>
<line x1="1149.8484531494928" y1="283.54560449633505" x2="1046.5743810987972" y2="323.1516368054978" stroke="url(#glow)" stroke-width="1" stroke-opacity="0.4"/>
<circle cx="985.8792087869934" cy="509.0975478016877" r="3.5495042547700324" fill="#ffcc80" opacity="0.7"/>
<line x1="985.8792087869934" y1="509.0975478016877" x2="973.9361154530009" y2="521.2053285692075" stroke="url(#glow)" stroke-width="1" stroke-opacity="0.4"/>
<line x1="985.8792087869934" y1="509.0975478016877" x2="990.6272803989575" y2="491.2986729639567" stroke="url(#glow)" stroke-width="1" stroke-opacity="0.4"/>
<path d="M 960 540 L 1460 200 A 700 700 0 0 1 1260 840 Z" fill="url(#aura)" opacity="0.5"/>

</svg>